<svg xmlns="http://www.w3.org/2000/svg" xmlns:xlink="http://www.w3.org/1999/xlink" width="3780" zoomAndPan="magnify" viewBox="0 0 2835 1417.499962" height="1890" preserveAspectRatio="xMidYMid meet" version="1.0"><defs><g/><clipPath id="a3b961a214"><path d="M 0.898438 539.1875 L 864 539.1875 L 864 686.109375 L 0.898438 686.109375 Z M 0.898438 539.1875 " clip-rule="nonzero"/></clipPath><clipPath id="5edeb1be38"><path d="M 836.179688 686.109375 L 28.585938 686.109375 C 13.328125 686.109375 0.898438 673.675781 0.898438 658.417969 L 0.898438 566.875 C 0.898438 551.617188 13.328125 539.1875 28.585938 539.1875 L 836.179688 539.1875 C 851.4375 539.1875 863.871094 551.617188 863.871094 566.875 L 863.871094 658.417969 C 863.871094 673.675781 851.4375 686.109375 836.179688 686.109375 Z M 836.179688 686.109375 " clip-rule="nonzero"/></clipPath><clipPath id="146fbddc3b"><path d="M 0.898438 0.1875 L 863.898438 0.1875 L 863.898438 147.109375 L 0.898438 147.109375 Z M 0.898438 0.1875 " clip-rule="nonzero"/></clipPath><clipPath id="4f16ad0412"><path d="M 836.179688 147.109375 L 28.585938 147.109375 C 13.328125 147.109375 0.898438 134.675781 0.898438 119.417969 L 0.898438 27.875 C 0.898438 12.617188 13.328125 0.1875 28.585938 0.1875 L 836.179688 0.1875 C 851.4375 0.1875 863.871094 12.617188 863.871094 27.875 L 863.871094 119.417969 C 863.871094 134.675781 851.4375 147.109375 836.179688 147.109375 Z M 836.179688 147.109375 " clip-rule="nonzero"/></clipPath><clipPath id="b2aa00f08f"><rect x="0" width="864" y="0" height="148"/></clipPath><clipPath id="2502f2b1f7"><path d="M 37.328125 613 L 47 613 L 47 619 L 37.328125 619 Z M 37.328125 613 " clip-rule="nonzero"/></clipPath><clipPath id="157302b0b9"><path d="M 74.132812 570.6875 L 204.542969 570.6875 L 204.542969 654.601562 L 74.132812 654.601562 Z M 74.132812 570.6875 " clip-rule="nonzero"/></clipPath><clipPath id="b0d1782188"><path d="M 445.757812 555.332031 L 560.480469 555.332031 L 560.480469 670 L 445.757812 670 Z M 445.757812 555.332031 " clip-rule="nonzero"/></clipPath><clipPath id="7381a97735"><path d="M 432 539 L 440 539 L 440 686.238281 L 432 686.238281 Z M 432 539 " clip-rule="nonzero"/></clipPath><clipPath id="b6b38c1c6b"><rect x="0" width="767" y="0" height="84"/></clipPath><clipPath id="ce4d923c69"><rect x="0" width="772" y="0" height="250"/></clipPath><clipPath id="ce3656711e"><rect x="0" width="336" y="0" height="167"/></clipPath><clipPath id="ab4d7fb979"><path d="M 441 0.5625 L 766 0.5625 L 766 259 L 441 259 Z M 441 0.5625 " clip-rule="nonzero"/></clipPath><clipPath id="ee06e775ed"><rect x="0" width="325" y="0" height="259"/></clipPath><clipPath id="b63292f2b0"><rect x="0" width="166" y="0" height="108"/></clipPath><clipPath id="c7a5a433e4"><rect x="0" width="207" y="0" height="108"/></clipPath><clipPath id="fed3c46cde"><rect x="0" width="865" y="0" height="687"/></clipPath></defs><g transform="matrix(1, 0, 0, 1, 269, 111)"><g clip-path="url(#fed3c46cde)"><g clip-path="url(#a3b961a214)"><g clip-path="url(#5edeb1be38)"><g transform="matrix(1, 0, 0, 1, -0.000000000000113687, 539)"><g clip-path="url(#b2aa00f08f)"><g clip-path="url(#146fbddc3b)"><g clip-path="url(#4f16ad0412)"><path fill="#f8f7f8" d="M 0.898438 0.1875 L 864.058594 0.1875 L 864.058594 147.109375 L 0.898438 147.109375 Z M 0.898438 0.1875 " fill-opacity="1" fill-rule="nonzero"/></g></g></g></g></g></g><path fill="#5e17eb" d="M 86.910156 630.378906 C 86.910156 628.984375 85.832031 627.855469 84.496094 627.855469 L 61.363281 627.855469 C 60.03125 627.855469 58.949219 628.984375 58.949219 630.378906 C 58.949219 631.769531 60.03125 632.902344 61.363281 632.902344 L 84.496094 632.902344 C 85.832031 632.902344 86.910156 631.769531 86.910156 630.378906 " fill-opacity="1" fill-rule="nonzero"/><path fill="#5e17eb" d="M 61.832031 599.425781 C 60.496094 599.425781 59.414062 600.554688 59.414062 601.949219 C 59.414062 603.34375 60.496094 604.472656 61.832031 604.472656 L 83.816406 604.472656 C 85.148438 604.472656 86.230469 603.34375 86.230469 601.949219 C 86.230469 600.554688 85.148438 599.425781 83.816406 599.425781 L 61.832031 599.425781 " fill-opacity="1" fill-rule="nonzero"/><path fill="#5e17eb" d="M 56.058594 590.257812 L 62.824219 590.257812 C 64.160156 590.257812 65.242188 589.128906 65.242188 587.734375 C 65.242188 586.339844 64.160156 585.210938 62.824219 585.210938 L 56.058594 585.210938 C 54.726562 585.210938 53.644531 586.339844 53.644531 587.734375 C 53.644531 589.128906 54.726562 590.257812 56.058594 590.257812 " fill-opacity="1" fill-rule="nonzero"/><path fill="#5e17eb" d="M 96.4375 616.164062 C 96.4375 614.769531 95.355469 613.640625 94.019531 613.640625 L 56.542969 613.640625 C 55.210938 613.640625 54.128906 614.769531 54.128906 616.164062 C 54.128906 617.558594 55.210938 618.6875 56.542969 618.6875 L 94.019531 618.6875 C 95.355469 618.6875 96.4375 617.558594 96.4375 616.164062 " fill-opacity="1" fill-rule="nonzero"/><g clip-path="url(#2502f2b1f7)"><path fill="#5e17eb" d="M 43.980469 613.640625 L 39.875 613.640625 C 38.539062 613.640625 37.457031 614.769531 37.457031 616.164062 C 37.457031 617.558594 38.539062 618.6875 39.875 618.6875 L 43.980469 618.6875 C 45.316406 618.6875 46.398438 617.558594 46.398438 616.164062 C 46.398438 614.769531 45.316406 613.640625 43.980469 613.640625 " fill-opacity="1" fill-rule="nonzero"/></g><path fill="#5e17eb" d="M 72.15625 590.257812 L 95.230469 590.257812 C 96.175781 590.257812 96.996094 589.6875 97.394531 588.855469 C 97.554688 588.515625 97.644531 588.136719 97.644531 587.734375 C 97.644531 587.332031 97.554688 586.953125 97.394531 586.613281 C 96.996094 585.78125 96.175781 585.210938 95.230469 585.210938 L 72.15625 585.210938 C 71.207031 585.210938 70.386719 585.78125 69.992188 586.613281 C 69.832031 586.949219 69.738281 587.332031 69.738281 587.734375 C 69.738281 588.136719 69.832031 588.519531 69.992188 588.859375 C 70.386719 589.6875 71.207031 590.257812 72.15625 590.257812 " fill-opacity="1" fill-rule="nonzero"/><g clip-path="url(#157302b0b9)"><path fill="#5e17eb" d="M 199.789062 636.359375 C 199.789062 638.769531 197.921875 640.722656 195.613281 640.722656 L 193.746094 640.722656 C 193.746094 640.636719 193.75 640.554688 193.75 640.46875 C 193.75 632.679688 187.683594 626.339844 180.222656 626.339844 C 172.761719 626.339844 166.695312 632.679688 166.695312 640.46875 C 166.695312 640.554688 166.699219 640.636719 166.699219 640.722656 L 157.753906 640.722656 L 157.753906 588.492188 L 182.488281 588.492188 C 184.234375 588.492188 185.859375 589.429688 186.785156 590.972656 L 198.734375 610.855469 C 199.390625 611.945312 199.75 613.199219 199.78125 614.480469 L 177.5625 614.480469 L 177.5625 597.125 C 177.5625 595.75 176.535156 594.585938 175.214844 594.546875 C 173.851562 594.507812 172.734375 595.652344 172.734375 597.070312 L 172.734375 617.003906 C 172.734375 618.398438 173.8125 619.527344 175.148438 619.527344 L 199.789062 619.527344 Z M 188.910156 640.894531 C 188.703125 645.554688 185.089844 649.328125 180.628906 649.542969 C 175.511719 649.789062 171.300781 645.386719 171.535156 640.042969 C 171.738281 635.382812 175.351562 631.609375 179.8125 631.398438 C 184.929688 631.152344 189.144531 635.550781 188.910156 640.894531 Z M 114.984375 640.894531 C 114.78125 645.554688 111.167969 649.328125 106.707031 649.542969 C 101.589844 649.789062 97.375 645.386719 97.609375 640.042969 C 97.816406 635.382812 101.429688 631.609375 105.890625 631.398438 C 111.007812 631.152344 115.21875 635.550781 114.984375 640.894531 Z M 202.828125 608.175781 L 190.878906 588.289062 C 189.054688 585.257812 185.917969 583.445312 182.488281 583.445312 L 157.75 583.445312 C 157.726562 581.402344 157.253906 579.472656 156.425781 577.757812 C 154.316406 573.390625 149.976562 570.6875 145.296875 570.6875 L 83.324219 570.6875 C 79.78125 571.171875 76.699219 573.214844 74.738281 576.132812 C 73.53125 577.925781 74.191406 579.761719 76.261719 580.128906 C 77.195312 580.296875 78.125 579.878906 78.648438 579.085938 C 80.027344 576.992188 82.332031 575.625 84.945312 575.625 L 145.285156 575.625 C 149.503906 575.625 152.921875 579.195312 152.921875 583.601562 L 152.921875 640.722656 L 119.820312 640.722656 C 119.820312 640.636719 119.828125 640.554688 119.828125 640.46875 C 119.828125 632.679688 113.757812 626.339844 106.296875 626.339844 C 98.839844 626.339844 92.769531 632.679688 92.769531 640.46875 C 92.769531 640.554688 92.773438 640.636719 92.773438 640.722656 L 84.945312 640.722656 C 82.960938 640.722656 81.152344 639.929688 79.796875 638.632812 C 79.339844 638.199219 78.757812 637.945312 78.140625 637.945312 C 75.949219 637.945312 74.886719 640.761719 76.5 642.3125 C 78.722656 644.457031 81.691406 645.769531 84.945312 645.769531 L 93.761719 645.769531 C 95.769531 650.941406 100.632812 654.601562 106.296875 654.601562 C 111.964844 654.601562 116.824219 650.941406 118.835938 645.769531 L 167.683594 645.769531 C 169.695312 650.941406 174.554688 654.601562 180.222656 654.601562 C 185.886719 654.601562 190.75 650.941406 192.757812 645.769531 L 195.613281 645.769531 C 200.589844 645.769531 204.621094 641.558594 204.621094 636.359375 L 204.621094 614.683594 C 204.621094 612.378906 204 610.128906 202.828125 608.175781 " fill-opacity="1" fill-rule="nonzero"/></g><g clip-path="url(#b0d1782188)"><path fill="#5e17eb" d="M 503.035156 555.332031 C 471.375 555.332031 445.757812 580.980469 445.757812 612.644531 C 445.757812 644.304688 471.375 669.953125 503.035156 669.953125 C 534.699219 669.953125 560.375 644.304688 560.375 612.644531 C 560.375 580.980469 534.699219 555.332031 503.035156 555.332031 Z M 503.066406 658.488281 C 477.734375 658.488281 457.21875 637.972656 457.21875 612.644531 C 457.21875 587.3125 477.734375 566.796875 503.066406 566.796875 C 528.394531 566.796875 548.914062 587.3125 548.914062 612.644531 C 548.914062 637.972656 528.394531 658.488281 503.066406 658.488281 Z M 503.066406 658.488281 " fill-opacity="0.9" fill-rule="nonzero"/></g><path fill="#5e17eb" d="M 505.929688 583.988281 L 497.335938 583.988281 L 497.335938 618.375 L 527.394531 636.425781 L 531.71875 629.378906 L 505.929688 614.074219 Z M 505.929688 583.988281 " fill-opacity="0.9" fill-rule="nonzero"/><g clip-path="url(#7381a97735)"><path stroke-linecap="round" transform="matrix(0, -0.749829, 0.749829, 0, 432.383164, 686.107187)" fill="none" stroke-linejoin="miter" d="M 4.498107 4.500556 L 191.441709 4.500556 " stroke="#000000" stroke-width="9" stroke-opacity="1" stroke-miterlimit="4"/></g><g transform="matrix(1, 0, 0, 1, 42, 222)"><g clip-path="url(#b6b38c1c6b)"><g fill="#ffffff" fill-opacity="1"><g transform="translate(1.565108, 60.911142)"><g><path d="M 34.28125 -29.359375 C 33.207031 -31.410156 31.722656 -32.957031 29.828125 -34 C 27.929688 -35.050781 25.738281 -35.578125 23.25 -35.578125 C 20.519531 -35.578125 18.085938 -34.960938 15.953125 -33.734375 C 13.816406 -32.515625 12.144531 -30.773438 10.9375 -28.515625 C 9.726562 -26.265625 9.125 -23.65625 9.125 -20.6875 C 9.125 -17.726562 9.726562 -15.109375 10.9375 -12.828125 C 12.144531 -10.554688 13.816406 -8.804688 15.953125 -7.578125 C 18.085938 -6.359375 20.519531 -5.75 23.25 -5.75 C 26.925781 -5.75 29.910156 -6.773438 32.203125 -8.828125 C 34.492188 -10.890625 35.894531 -13.679688 36.40625 -17.203125 L 20.9375 -17.203125 L 20.9375 -22.59375 L 43.640625 -22.59375 L 43.640625 -17.3125 C 43.203125 -14.113281 42.0625 -11.171875 40.21875 -8.484375 C 38.382812 -5.796875 35.992188 -3.648438 33.046875 -2.046875 C 30.109375 -0.441406 26.84375 0.359375 23.25 0.359375 C 19.375 0.359375 15.832031 -0.539062 12.625 -2.34375 C 9.425781 -4.144531 6.882812 -6.644531 5 -9.84375 C 3.125 -13.039062 2.1875 -16.65625 2.1875 -20.6875 C 2.1875 -24.726562 3.125 -28.347656 5 -31.546875 C 6.882812 -34.742188 9.4375 -37.242188 12.65625 -39.046875 C 15.882812 -40.847656 19.414062 -41.75 23.25 -41.75 C 27.632812 -41.75 31.535156 -40.671875 34.953125 -38.515625 C 38.367188 -36.359375 40.847656 -33.304688 42.390625 -29.359375 Z M 34.28125 -29.359375 "/></g></g></g><g fill="#ffffff" fill-opacity="1"><g transform="translate(47.381558, 60.911142)"><g><path d="M 2.1875 -16.484375 C 2.1875 -19.765625 2.867188 -22.671875 4.234375 -25.203125 C 5.597656 -27.734375 7.457031 -29.695312 9.8125 -31.09375 C 12.164062 -32.5 14.765625 -33.203125 17.609375 -33.203125 C 20.179688 -33.203125 22.425781 -32.695312 24.34375 -31.6875 C 26.257812 -30.6875 27.789062 -29.429688 28.9375 -27.921875 L 28.9375 -32.671875 L 35.75 -32.671875 L 35.75 0 L 28.9375 0 L 28.9375 -4.859375 C 27.789062 -3.316406 26.226562 -2.03125 24.25 -1 C 22.269531 0.0195312 20.019531 0.53125 17.5 0.53125 C 14.6875 0.53125 12.113281 -0.1875 9.78125 -1.625 C 7.445312 -3.070312 5.597656 -5.085938 4.234375 -7.671875 C 2.867188 -10.265625 2.1875 -13.203125 2.1875 -16.484375 Z M 28.9375 -16.359375 C 28.9375 -18.617188 28.472656 -20.578125 27.546875 -22.234375 C 26.617188 -23.898438 25.398438 -25.164062 23.890625 -26.03125 C 22.390625 -26.894531 20.769531 -27.328125 19.03125 -27.328125 C 17.289062 -27.328125 15.671875 -26.898438 14.171875 -26.046875 C 12.671875 -25.203125 11.453125 -23.957031 10.515625 -22.3125 C 9.585938 -20.675781 9.125 -18.734375 9.125 -16.484375 C 9.125 -14.234375 9.585938 -12.253906 10.515625 -10.546875 C 11.453125 -8.847656 12.679688 -7.554688 14.203125 -6.671875 C 15.722656 -5.785156 17.332031 -5.34375 19.03125 -5.34375 C 20.769531 -5.34375 22.390625 -5.773438 23.890625 -6.640625 C 25.398438 -7.515625 26.617188 -8.789062 27.546875 -10.46875 C 28.472656 -12.144531 28.9375 -14.109375 28.9375 -16.359375 Z M 28.9375 -16.359375 "/></g></g></g><g fill="#ffffff" fill-opacity="1"><g transform="translate(87.567269, 60.911142)"><g><path d="M 2.1875 -16.484375 C 2.1875 -19.765625 2.867188 -22.671875 4.234375 -25.203125 C 5.597656 -27.734375 7.457031 -29.695312 9.8125 -31.09375 C 12.164062 -32.5 14.785156 -33.203125 17.671875 -33.203125 C 19.804688 -33.203125 21.910156 -32.738281 23.984375 -31.8125 C 26.054688 -30.882812 27.707031 -29.648438 28.9375 -28.109375 L 28.9375 -43.875 L 35.75 -43.875 L 35.75 0 L 28.9375 0 L 28.9375 -4.921875 C 27.832031 -3.335938 26.300781 -2.03125 24.34375 -1 C 22.382812 0.0195312 20.140625 0.53125 17.609375 0.53125 C 14.765625 0.53125 12.164062 -0.1875 9.8125 -1.625 C 7.457031 -3.070312 5.597656 -5.085938 4.234375 -7.671875 C 2.867188 -10.265625 2.1875 -13.203125 2.1875 -16.484375 Z M 28.9375 -16.359375 C 28.9375 -18.617188 28.472656 -20.578125 27.546875 -22.234375 C 26.617188 -23.898438 25.398438 -25.164062 23.890625 -26.03125 C 22.390625 -26.894531 20.769531 -27.328125 19.03125 -27.328125 C 17.289062 -27.328125 15.671875 -26.898438 14.171875 -26.046875 C 12.671875 -25.203125 11.453125 -23.957031 10.515625 -22.3125 C 9.585938 -20.675781 9.125 -18.734375 9.125 -16.484375 C 9.125 -14.234375 9.585938 -12.253906 10.515625 -10.546875 C 11.453125 -8.847656 12.679688 -7.554688 14.203125 -6.671875 C 15.722656 -5.785156 17.332031 -5.34375 19.03125 -5.34375 C 20.769531 -5.34375 22.390625 -5.773438 23.890625 -6.640625 C 25.398438 -7.515625 26.617188 -8.789062 27.546875 -10.46875 C 28.472656 -12.144531 28.9375 -14.109375 28.9375 -16.359375 Z M 28.9375 -16.359375 "/></g></g></g><g fill="#ffffff" fill-opacity="1"><g transform="translate(127.752981, 60.911142)"><g><path d="M 17.609375 -33.203125 C 20.140625 -33.203125 22.382812 -32.695312 24.34375 -31.6875 C 26.300781 -30.6875 27.832031 -29.429688 28.9375 -27.921875 L 28.9375 -32.671875 L 35.75 -32.671875 L 35.75 0.53125 C 35.75 3.539062 35.117188 6.21875 33.859375 8.5625 C 32.597656 10.914062 30.769531 12.765625 28.375 14.109375 C 25.976562 15.453125 23.125 16.125 19.8125 16.125 C 15.375 16.125 11.691406 15.085938 8.765625 13.015625 C 5.847656 10.941406 4.191406 8.125 3.796875 4.5625 L 10.5 4.5625 C 11.007812 6.257812 12.101562 7.632812 13.78125 8.6875 C 15.46875 9.738281 17.476562 10.265625 19.8125 10.265625 C 22.53125 10.265625 24.726562 9.429688 26.40625 7.765625 C 28.09375 6.109375 28.9375 3.695312 28.9375 0.53125 L 28.9375 -4.921875 C 27.789062 -3.378906 26.238281 -2.082031 24.28125 -1.03125 C 22.320312 0.0078125 20.097656 0.53125 17.609375 0.53125 C 14.765625 0.53125 12.164062 -0.1875 9.8125 -1.625 C 7.457031 -3.070312 5.597656 -5.085938 4.234375 -7.671875 C 2.867188 -10.265625 2.1875 -13.203125 2.1875 -16.484375 C 2.1875 -19.765625 2.867188 -22.671875 4.234375 -25.203125 C 5.597656 -27.734375 7.457031 -29.695312 9.8125 -31.09375 C 12.164062 -32.5 14.765625 -33.203125 17.609375 -33.203125 Z M 28.9375 -16.359375 C 28.9375 -18.617188 28.472656 -20.578125 27.546875 -22.234375 C 26.617188 -23.898438 25.398438 -25.164062 23.890625 -26.03125 C 22.390625 -26.894531 20.769531 -27.328125 19.03125 -27.328125 C 17.289062 -27.328125 15.671875 -26.898438 14.171875 -26.046875 C 12.671875 -25.203125 11.453125 -23.957031 10.515625 -22.3125 C 9.585938 -20.675781 9.125 -18.734375 9.125 -16.484375 C 9.125 -14.234375 9.585938 -12.253906 10.515625 -10.546875 C 11.453125 -8.847656 12.679688 -7.554688 14.203125 -6.671875 C 15.722656 -5.785156 17.332031 -5.34375 19.03125 -5.34375 C 20.769531 -5.34375 22.390625 -5.773438 23.890625 -6.640625 C 25.398438 -7.515625 26.617188 -8.789062 27.546875 -10.46875 C 28.472656 -12.144531 28.9375 -14.109375 28.9375 -16.359375 Z M 28.9375 -16.359375 "/></g></g></g><g fill="#ffffff" fill-opacity="1"><g transform="translate(167.938692, 60.911142)"><g><path d="M 34.390625 -17.140625 C 34.390625 -15.910156 34.3125 -14.800781 34.15625 -13.8125 L 9.1875 -13.8125 C 9.382812 -11.207031 10.351562 -9.113281 12.09375 -7.53125 C 13.832031 -5.945312 15.96875 -5.15625 18.5 -5.15625 C 22.132812 -5.15625 24.703125 -6.675781 26.203125 -9.71875 L 33.5 -9.71875 C 32.507812 -6.71875 30.71875 -4.257812 28.125 -2.34375 C 25.539062 -0.425781 22.332031 0.53125 18.5 0.53125 C 15.375 0.53125 12.578125 -0.164062 10.109375 -1.5625 C 7.640625 -2.96875 5.703125 -4.945312 4.296875 -7.5 C 2.890625 -10.050781 2.1875 -13.003906 2.1875 -16.359375 C 2.1875 -19.722656 2.867188 -22.679688 4.234375 -25.234375 C 5.597656 -27.785156 7.515625 -29.75 9.984375 -31.125 C 12.460938 -32.507812 15.300781 -33.203125 18.5 -33.203125 C 21.582031 -33.203125 24.328125 -32.53125 26.734375 -31.1875 C 29.148438 -29.84375 31.03125 -27.953125 32.375 -25.515625 C 33.71875 -23.085938 34.390625 -20.296875 34.390625 -17.140625 Z M 27.328125 -19.265625 C 27.296875 -21.753906 26.410156 -23.75 24.671875 -25.25 C 22.929688 -26.757812 20.773438 -27.515625 18.203125 -27.515625 C 15.867188 -27.515625 13.867188 -26.769531 12.203125 -25.28125 C 10.546875 -23.800781 9.5625 -21.796875 9.25 -19.265625 Z M 27.328125 -19.265625 "/></g></g></g><g fill="#ffffff" fill-opacity="1"><g transform="translate(204.508855, 60.911142)"><g><path d="M 12.328125 -27.15625 L 12.328125 -9.078125 C 12.328125 -7.847656 12.613281 -6.96875 13.1875 -6.4375 C 13.757812 -5.90625 14.738281 -5.640625 16.125 -5.640625 L 20.28125 -5.640625 L 20.28125 0 L 14.9375 0 C 11.894531 0 9.5625 -0.707031 7.9375 -2.125 C 6.320312 -3.550781 5.515625 -5.867188 5.515625 -9.078125 L 5.515625 -27.15625 L 1.65625 -27.15625 L 1.65625 -32.671875 L 5.515625 -32.671875 L 5.515625 -40.796875 L 12.328125 -40.796875 L 12.328125 -32.671875 L 20.28125 -32.671875 L 20.28125 -27.15625 Z M 12.328125 -27.15625 "/></g></g></g><g fill="#ffffff" fill-opacity="1"><g transform="translate(226.557653, 60.911142)"><g><path d="M 16.3125 0.53125 C 13.738281 0.53125 11.429688 0.0664062 9.390625 -0.859375 C 7.359375 -1.785156 5.75 -3.050781 4.5625 -4.65625 C 3.375 -6.257812 2.742188 -8.046875 2.671875 -10.015625 L 9.671875 -10.015625 C 9.785156 -8.640625 10.441406 -7.484375 11.640625 -6.546875 C 12.847656 -5.617188 14.363281 -5.15625 16.1875 -5.15625 C 18.082031 -5.15625 19.550781 -5.519531 20.59375 -6.25 C 21.644531 -6.988281 22.171875 -7.929688 22.171875 -9.078125 C 22.171875 -10.296875 21.585938 -11.203125 20.421875 -11.796875 C 19.253906 -12.390625 17.410156 -13.039062 14.890625 -13.75 C 12.429688 -14.425781 10.429688 -15.078125 8.890625 -15.703125 C 7.347656 -16.335938 6.015625 -17.304688 4.890625 -18.609375 C 3.765625 -19.921875 3.203125 -21.644531 3.203125 -23.78125 C 3.203125 -25.519531 3.710938 -27.109375 4.734375 -28.546875 C 5.765625 -29.992188 7.238281 -31.128906 9.15625 -31.953125 C 11.070312 -32.785156 13.273438 -33.203125 15.765625 -33.203125 C 19.484375 -33.203125 22.476562 -32.265625 24.75 -30.390625 C 27.03125 -28.515625 28.25 -25.953125 28.40625 -22.703125 L 21.640625 -22.703125 C 21.523438 -24.171875 20.929688 -25.335938 19.859375 -26.203125 C 18.796875 -27.078125 17.351562 -27.515625 15.53125 -27.515625 C 13.757812 -27.515625 12.394531 -27.175781 11.4375 -26.5 C 10.488281 -25.832031 10.015625 -24.945312 10.015625 -23.84375 C 10.015625 -22.96875 10.332031 -22.234375 10.96875 -21.640625 C 11.601562 -21.046875 12.375 -20.582031 13.28125 -20.25 C 14.1875 -19.914062 15.53125 -19.488281 17.3125 -18.96875 C 19.6875 -18.34375 21.632812 -17.703125 23.15625 -17.046875 C 24.675781 -16.390625 25.988281 -15.429688 27.09375 -14.171875 C 28.207031 -12.910156 28.78125 -11.226562 28.8125 -9.125 C 28.8125 -7.269531 28.296875 -5.609375 27.265625 -4.140625 C 26.242188 -2.679688 24.796875 -1.535156 22.921875 -0.703125 C 21.046875 0.117188 18.84375 0.53125 16.3125 0.53125 Z M 16.3125 0.53125 "/></g></g></g><g fill="#ffffff" fill-opacity="1"><g transform="translate(258.208348, 60.911142)"><g/></g></g><g fill="#ffffff" fill-opacity="1"><g transform="translate(273.618801, 60.911142)"><g><path d="M 2.1875 -16.484375 C 2.1875 -19.765625 2.867188 -22.671875 4.234375 -25.203125 C 5.597656 -27.734375 7.457031 -29.695312 9.8125 -31.09375 C 12.164062 -32.5 14.765625 -33.203125 17.609375 -33.203125 C 20.179688 -33.203125 22.425781 -32.695312 24.34375 -31.6875 C 26.257812 -30.6875 27.789062 -29.429688 28.9375 -27.921875 L 28.9375 -32.671875 L 35.75 -32.671875 L 35.75 0 L 28.9375 0 L 28.9375 -4.859375 C 27.789062 -3.316406 26.226562 -2.03125 24.25 -1 C 22.269531 0.0195312 20.019531 0.53125 17.5 0.53125 C 14.6875 0.53125 12.113281 -0.1875 9.78125 -1.625 C 7.445312 -3.070312 5.597656 -5.085938 4.234375 -7.671875 C 2.867188 -10.265625 2.1875 -13.203125 2.1875 -16.484375 Z M 28.9375 -16.359375 C 28.9375 -18.617188 28.472656 -20.578125 27.546875 -22.234375 C 26.617188 -23.898438 25.398438 -25.164062 23.890625 -26.03125 C 22.390625 -26.894531 20.769531 -27.328125 19.03125 -27.328125 C 17.289062 -27.328125 15.671875 -26.898438 14.171875 -26.046875 C 12.671875 -25.203125 11.453125 -23.957031 10.515625 -22.3125 C 9.585938 -20.675781 9.125 -18.734375 9.125 -16.484375 C 9.125 -14.234375 9.585938 -12.253906 10.515625 -10.546875 C 11.453125 -8.847656 12.679688 -7.554688 14.203125 -6.671875 C 15.722656 -5.785156 17.332031 -5.34375 19.03125 -5.34375 C 20.769531 -5.34375 22.390625 -5.773438 23.890625 -6.640625 C 25.398438 -7.515625 26.617188 -8.789062 27.546875 -10.46875 C 28.472656 -12.144531 28.9375 -14.109375 28.9375 -16.359375 Z M 28.9375 -16.359375 "/></g></g></g><g fill="#ffffff" fill-opacity="1"><g transform="translate(313.804512, 60.911142)"><g><path d="M 20.9375 -33.203125 C 23.5 -33.203125 25.796875 -32.664062 27.828125 -31.59375 C 29.867188 -30.53125 31.460938 -28.953125 32.609375 -26.859375 C 33.753906 -24.765625 34.328125 -22.234375 34.328125 -19.265625 L 34.328125 0 L 27.625 0 L 27.625 -18.265625 C 27.625 -21.191406 26.894531 -23.429688 25.4375 -24.984375 C 23.976562 -26.546875 21.984375 -27.328125 19.453125 -27.328125 C 16.921875 -27.328125 14.910156 -26.546875 13.421875 -24.984375 C 11.941406 -23.429688 11.203125 -21.191406 11.203125 -18.265625 L 11.203125 0 L 4.453125 0 L 4.453125 -32.671875 L 11.203125 -32.671875 L 11.203125 -28.9375 C 12.316406 -30.28125 13.734375 -31.328125 15.453125 -32.078125 C 17.171875 -32.828125 19 -33.203125 20.9375 -33.203125 Z M 20.9375 -33.203125 "/></g></g></g><g fill="#ffffff" fill-opacity="1"><g transform="translate(352.271345, 60.911142)"><g><path d="M 2.1875 -16.484375 C 2.1875 -19.765625 2.867188 -22.671875 4.234375 -25.203125 C 5.597656 -27.734375 7.457031 -29.695312 9.8125 -31.09375 C 12.164062 -32.5 14.785156 -33.203125 17.671875 -33.203125 C 19.804688 -33.203125 21.910156 -32.738281 23.984375 -31.8125 C 26.054688 -30.882812 27.707031 -29.648438 28.9375 -28.109375 L 28.9375 -43.875 L 35.75 -43.875 L 35.75 0 L 28.9375 0 L 28.9375 -4.921875 C 27.832031 -3.335938 26.300781 -2.03125 24.34375 -1 C 22.382812 0.0195312 20.140625 0.53125 17.609375 0.53125 C 14.765625 0.53125 12.164062 -0.1875 9.8125 -1.625 C 7.457031 -3.070312 5.597656 -5.085938 4.234375 -7.671875 C 2.867188 -10.265625 2.1875 -13.203125 2.1875 -16.484375 Z M 28.9375 -16.359375 C 28.9375 -18.617188 28.472656 -20.578125 27.546875 -22.234375 C 26.617188 -23.898438 25.398438 -25.164062 23.890625 -26.03125 C 22.390625 -26.894531 20.769531 -27.328125 19.03125 -27.328125 C 17.289062 -27.328125 15.671875 -26.898438 14.171875 -26.046875 C 12.671875 -25.203125 11.453125 -23.957031 10.515625 -22.3125 C 9.585938 -20.675781 9.125 -18.734375 9.125 -16.484375 C 9.125 -14.234375 9.585938 -12.253906 10.515625 -10.546875 C 11.453125 -8.847656 12.679688 -7.554688 14.203125 -6.671875 C 15.722656 -5.785156 17.332031 -5.34375 19.03125 -5.34375 C 20.769531 -5.34375 22.390625 -5.773438 23.890625 -6.640625 C 25.398438 -7.515625 26.617188 -8.789062 27.546875 -10.46875 C 28.472656 -12.144531 28.9375 -14.109375 28.9375 -16.359375 Z M 28.9375 -16.359375 "/></g></g></g><g fill="#ffffff" fill-opacity="1"><g transform="translate(392.457057, 60.911142)"><g/></g></g><g fill="#ffffff" fill-opacity="1"><g transform="translate(407.867509, 60.911142)"><g><path d="M 29.296875 -8.421875 L 12.03125 -8.421875 L 9.078125 0 L 2.015625 0 L 16.78125 -41.265625 L 24.609375 -41.265625 L 39.375 0 L 32.25 0 Z M 27.390625 -13.9375 L 20.6875 -33.09375 L 13.9375 -13.9375 Z M 27.390625 -13.9375 "/></g></g></g><g fill="#ffffff" fill-opacity="1"><g transform="translate(449.179347, 60.911142)"><g><path d="M 2.1875 -16.359375 C 2.1875 -19.722656 2.867188 -22.679688 4.234375 -25.234375 C 5.597656 -27.785156 7.484375 -29.75 9.890625 -31.125 C 12.304688 -32.507812 15.078125 -33.203125 18.203125 -33.203125 C 22.160156 -33.203125 25.429688 -32.265625 28.015625 -30.390625 C 30.609375 -28.515625 32.359375 -25.835938 33.265625 -22.359375 L 25.96875 -22.359375 C 25.375 -23.972656 24.425781 -25.234375 23.125 -26.140625 C 21.820312 -27.054688 20.179688 -27.515625 18.203125 -27.515625 C 15.429688 -27.515625 13.222656 -26.535156 11.578125 -24.578125 C 9.941406 -22.617188 9.125 -19.878906 9.125 -16.359375 C 9.125 -12.847656 9.941406 -10.101562 11.578125 -8.125 C 13.222656 -6.144531 15.429688 -5.15625 18.203125 -5.15625 C 22.117188 -5.15625 24.707031 -6.875 25.96875 -10.3125 L 33.265625 -10.3125 C 32.316406 -7 30.535156 -4.363281 27.921875 -2.40625 C 25.316406 -0.445312 22.078125 0.53125 18.203125 0.53125 C 15.078125 0.53125 12.304688 -0.164062 9.890625 -1.5625 C 7.484375 -2.96875 5.597656 -4.945312 4.234375 -7.5 C 2.867188 -10.050781 2.1875 -13.003906 2.1875 -16.359375 Z M 2.1875 -16.359375 "/></g></g></g><g fill="#ffffff" fill-opacity="1"><g transform="translate(484.741902, 60.911142)"><g><path d="M 2.1875 -16.359375 C 2.1875 -19.722656 2.867188 -22.679688 4.234375 -25.234375 C 5.597656 -27.785156 7.484375 -29.75 9.890625 -31.125 C 12.304688 -32.507812 15.078125 -33.203125 18.203125 -33.203125 C 22.160156 -33.203125 25.429688 -32.265625 28.015625 -30.390625 C 30.609375 -28.515625 32.359375 -25.835938 33.265625 -22.359375 L 25.96875 -22.359375 C 25.375 -23.972656 24.425781 -25.234375 23.125 -26.140625 C 21.820312 -27.054688 20.179688 -27.515625 18.203125 -27.515625 C 15.429688 -27.515625 13.222656 -26.535156 11.578125 -24.578125 C 9.941406 -22.617188 9.125 -19.878906 9.125 -16.359375 C 9.125 -12.847656 9.941406 -10.101562 11.578125 -8.125 C 13.222656 -6.144531 15.429688 -5.15625 18.203125 -5.15625 C 22.117188 -5.15625 24.707031 -6.875 25.96875 -10.3125 L 33.265625 -10.3125 C 32.316406 -7 30.535156 -4.363281 27.921875 -2.40625 C 25.316406 -0.445312 22.078125 0.53125 18.203125 0.53125 C 15.078125 0.53125 12.304688 -0.164062 9.890625 -1.5625 C 7.484375 -2.96875 5.597656 -4.945312 4.234375 -7.5 C 2.867188 -10.050781 2.1875 -13.003906 2.1875 -16.359375 Z M 2.1875 -16.359375 "/></g></g></g><g fill="#ffffff" fill-opacity="1"><g transform="translate(520.304509, 60.911142)"><g><path d="M 34.390625 -17.140625 C 34.390625 -15.910156 34.3125 -14.800781 34.15625 -13.8125 L 9.1875 -13.8125 C 9.382812 -11.207031 10.351562 -9.113281 12.09375 -7.53125 C 13.832031 -5.945312 15.96875 -5.15625 18.5 -5.15625 C 22.132812 -5.15625 24.703125 -6.675781 26.203125 -9.71875 L 33.5 -9.71875 C 32.507812 -6.71875 30.71875 -4.257812 28.125 -2.34375 C 25.539062 -0.425781 22.332031 0.53125 18.5 0.53125 C 15.375 0.53125 12.578125 -0.164062 10.109375 -1.5625 C 7.640625 -2.96875 5.703125 -4.945312 4.296875 -7.5 C 2.890625 -10.050781 2.1875 -13.003906 2.1875 -16.359375 C 2.1875 -19.722656 2.867188 -22.679688 4.234375 -25.234375 C 5.597656 -27.785156 7.515625 -29.75 9.984375 -31.125 C 12.460938 -32.507812 15.300781 -33.203125 18.5 -33.203125 C 21.582031 -33.203125 24.328125 -32.53125 26.734375 -31.1875 C 29.148438 -29.84375 31.03125 -27.953125 32.375 -25.515625 C 33.71875 -23.085938 34.390625 -20.296875 34.390625 -17.140625 Z M 27.328125 -19.265625 C 27.296875 -21.753906 26.410156 -23.75 24.671875 -25.25 C 22.929688 -26.757812 20.773438 -27.515625 18.203125 -27.515625 C 15.867188 -27.515625 13.867188 -26.769531 12.203125 -25.28125 C 10.546875 -23.800781 9.5625 -21.796875 9.25 -19.265625 Z M 27.328125 -19.265625 "/></g></g></g><g fill="#ffffff" fill-opacity="1"><g transform="translate(556.874671, 60.911142)"><g><path d="M 16.3125 0.53125 C 13.738281 0.53125 11.429688 0.0664062 9.390625 -0.859375 C 7.359375 -1.785156 5.75 -3.050781 4.5625 -4.65625 C 3.375 -6.257812 2.742188 -8.046875 2.671875 -10.015625 L 9.671875 -10.015625 C 9.785156 -8.640625 10.441406 -7.484375 11.640625 -6.546875 C 12.847656 -5.617188 14.363281 -5.15625 16.1875 -5.15625 C 18.082031 -5.15625 19.550781 -5.519531 20.59375 -6.25 C 21.644531 -6.988281 22.171875 -7.929688 22.171875 -9.078125 C 22.171875 -10.296875 21.585938 -11.203125 20.421875 -11.796875 C 19.253906 -12.390625 17.410156 -13.039062 14.890625 -13.75 C 12.429688 -14.425781 10.429688 -15.078125 8.890625 -15.703125 C 7.347656 -16.335938 6.015625 -17.304688 4.890625 -18.609375 C 3.765625 -19.921875 3.203125 -21.644531 3.203125 -23.78125 C 3.203125 -25.519531 3.710938 -27.109375 4.734375 -28.546875 C 5.765625 -29.992188 7.238281 -31.128906 9.15625 -31.953125 C 11.070312 -32.785156 13.273438 -33.203125 15.765625 -33.203125 C 19.484375 -33.203125 22.476562 -32.265625 24.75 -30.390625 C 27.03125 -28.515625 28.25 -25.953125 28.40625 -22.703125 L 21.640625 -22.703125 C 21.523438 -24.171875 20.929688 -25.335938 19.859375 -26.203125 C 18.796875 -27.078125 17.351562 -27.515625 15.53125 -27.515625 C 13.757812 -27.515625 12.394531 -27.175781 11.4375 -26.5 C 10.488281 -25.832031 10.015625 -24.945312 10.015625 -23.84375 C 10.015625 -22.96875 10.332031 -22.234375 10.96875 -21.640625 C 11.601562 -21.046875 12.375 -20.582031 13.28125 -20.25 C 14.1875 -19.914062 15.53125 -19.488281 17.3125 -18.96875 C 19.6875 -18.34375 21.632812 -17.703125 23.15625 -17.046875 C 24.675781 -16.390625 25.988281 -15.429688 27.09375 -14.171875 C 28.207031 -12.910156 28.78125 -11.226562 28.8125 -9.125 C 28.8125 -7.269531 28.296875 -5.609375 27.265625 -4.140625 C 26.242188 -2.679688 24.796875 -1.535156 22.921875 -0.703125 C 21.046875 0.117188 18.84375 0.53125 16.3125 0.53125 Z M 16.3125 0.53125 "/></g></g></g><g fill="#ffffff" fill-opacity="1"><g transform="translate(588.52534, 60.911142)"><g><path d="M 16.3125 0.53125 C 13.738281 0.53125 11.429688 0.0664062 9.390625 -0.859375 C 7.359375 -1.785156 5.75 -3.050781 4.5625 -4.65625 C 3.375 -6.257812 2.742188 -8.046875 2.671875 -10.015625 L 9.671875 -10.015625 C 9.785156 -8.640625 10.441406 -7.484375 11.640625 -6.546875 C 12.847656 -5.617188 14.363281 -5.15625 16.1875 -5.15625 C 18.082031 -5.15625 19.550781 -5.519531 20.59375 -6.25 C 21.644531 -6.988281 22.171875 -7.929688 22.171875 -9.078125 C 22.171875 -10.296875 21.585938 -11.203125 20.421875 -11.796875 C 19.253906 -12.390625 17.410156 -13.039062 14.890625 -13.75 C 12.429688 -14.425781 10.429688 -15.078125 8.890625 -15.703125 C 7.347656 -16.335938 6.015625 -17.304688 4.890625 -18.609375 C 3.765625 -19.921875 3.203125 -21.644531 3.203125 -23.78125 C 3.203125 -25.519531 3.710938 -27.109375 4.734375 -28.546875 C 5.765625 -29.992188 7.238281 -31.128906 9.15625 -31.953125 C 11.070312 -32.785156 13.273438 -33.203125 15.765625 -33.203125 C 19.484375 -33.203125 22.476562 -32.265625 24.75 -30.390625 C 27.03125 -28.515625 28.25 -25.953125 28.40625 -22.703125 L 21.640625 -22.703125 C 21.523438 -24.171875 20.929688 -25.335938 19.859375 -26.203125 C 18.796875 -27.078125 17.351562 -27.515625 15.53125 -27.515625 C 13.757812 -27.515625 12.394531 -27.175781 11.4375 -26.5 C 10.488281 -25.832031 10.015625 -24.945312 10.015625 -23.84375 C 10.015625 -22.96875 10.332031 -22.234375 10.96875 -21.640625 C 11.601562 -21.046875 12.375 -20.582031 13.28125 -20.25 C 14.1875 -19.914062 15.53125 -19.488281 17.3125 -18.96875 C 19.6875 -18.34375 21.632812 -17.703125 23.15625 -17.046875 C 24.675781 -16.390625 25.988281 -15.429688 27.09375 -14.171875 C 28.207031 -12.910156 28.78125 -11.226562 28.8125 -9.125 C 28.8125 -7.269531 28.296875 -5.609375 27.265625 -4.140625 C 26.242188 -2.679688 24.796875 -1.535156 22.921875 -0.703125 C 21.046875 0.117188 18.84375 0.53125 16.3125 0.53125 Z M 16.3125 0.53125 "/></g></g></g><g fill="#ffffff" fill-opacity="1"><g transform="translate(620.176062, 60.911142)"><g><path d="M 18.625 0.53125 C 15.539062 0.53125 12.75 -0.164062 10.25 -1.5625 C 7.757812 -2.96875 5.800781 -4.945312 4.375 -7.5 C 2.957031 -10.050781 2.25 -13.003906 2.25 -16.359375 C 2.25 -19.679688 2.976562 -22.628906 4.4375 -25.203125 C 5.90625 -27.773438 7.90625 -29.75 10.4375 -31.125 C 12.96875 -32.507812 15.796875 -33.203125 18.921875 -33.203125 C 22.035156 -33.203125 24.859375 -32.507812 27.390625 -31.125 C 29.921875 -29.75 31.914062 -27.773438 33.375 -25.203125 C 34.84375 -22.628906 35.578125 -19.679688 35.578125 -16.359375 C 35.578125 -13.046875 34.828125 -10.101562 33.328125 -7.53125 C 31.828125 -4.957031 29.78125 -2.96875 27.1875 -1.5625 C 24.59375 -0.164062 21.738281 0.53125 18.625 0.53125 Z M 18.625 -5.34375 C 20.363281 -5.34375 21.992188 -5.753906 23.515625 -6.578125 C 25.035156 -7.410156 26.269531 -8.65625 27.21875 -10.3125 C 28.164062 -11.976562 28.640625 -13.992188 28.640625 -16.359375 C 28.640625 -18.734375 28.179688 -20.738281 27.265625 -22.375 C 26.359375 -24.019531 25.15625 -25.253906 23.65625 -26.078125 C 22.15625 -26.910156 20.535156 -27.328125 18.796875 -27.328125 C 17.054688 -27.328125 15.441406 -26.910156 13.953125 -26.078125 C 12.472656 -25.253906 11.296875 -24.019531 10.421875 -22.375 C 9.554688 -20.738281 9.125 -18.734375 9.125 -16.359375 C 9.125 -12.847656 10.023438 -10.132812 11.828125 -8.21875 C 13.628906 -6.300781 15.894531 -5.34375 18.625 -5.34375 Z M 18.625 -5.34375 "/></g></g></g><g fill="#ffffff" fill-opacity="1"><g transform="translate(657.990922, 60.911142)"><g><path d="M 11.203125 -27.921875 C 12.191406 -29.585938 13.503906 -30.882812 15.140625 -31.8125 C 16.785156 -32.738281 18.734375 -33.203125 20.984375 -33.203125 L 20.984375 -26.203125 L 19.265625 -26.203125 C 16.617188 -26.203125 14.613281 -25.53125 13.25 -24.1875 C 11.882812 -22.84375 11.203125 -20.515625 11.203125 -17.203125 L 11.203125 0 L 4.453125 0 L 4.453125 -32.671875 L 11.203125 -32.671875 Z M 11.203125 -27.921875 "/></g></g></g><g fill="#ffffff" fill-opacity="1"><g transform="translate(680.750966, 60.911142)"><g><path d="M 7.890625 -37 C 6.660156 -37 5.628906 -37.410156 4.796875 -38.234375 C 3.972656 -39.066406 3.5625 -40.097656 3.5625 -41.328125 C 3.5625 -42.554688 3.972656 -43.582031 4.796875 -44.40625 C 5.628906 -45.238281 6.660156 -45.65625 7.890625 -45.65625 C 9.078125 -45.65625 10.082031 -45.238281 10.90625 -44.40625 C 11.738281 -43.582031 12.15625 -42.554688 12.15625 -41.328125 C 12.15625 -40.097656 11.738281 -39.066406 10.90625 -38.234375 C 10.082031 -37.410156 9.078125 -37 7.890625 -37 Z M 11.203125 -32.671875 L 11.203125 0 L 4.453125 0 L 4.453125 -32.671875 Z M 11.203125 -32.671875 "/></g></g></g><g fill="#ffffff" fill-opacity="1"><g transform="translate(696.398509, 60.911142)"><g><path d="M 34.390625 -17.140625 C 34.390625 -15.910156 34.3125 -14.800781 34.15625 -13.8125 L 9.1875 -13.8125 C 9.382812 -11.207031 10.351562 -9.113281 12.09375 -7.53125 C 13.832031 -5.945312 15.96875 -5.15625 18.5 -5.15625 C 22.132812 -5.15625 24.703125 -6.675781 26.203125 -9.71875 L 33.5 -9.71875 C 32.507812 -6.71875 30.71875 -4.257812 28.125 -2.34375 C 25.539062 -0.425781 22.332031 0.53125 18.5 0.53125 C 15.375 0.53125 12.578125 -0.164062 10.109375 -1.5625 C 7.640625 -2.96875 5.703125 -4.945312 4.296875 -7.5 C 2.890625 -10.050781 2.1875 -13.003906 2.1875 -16.359375 C 2.1875 -19.722656 2.867188 -22.679688 4.234375 -25.234375 C 5.597656 -27.785156 7.515625 -29.75 9.984375 -31.125 C 12.460938 -32.507812 15.300781 -33.203125 18.5 -33.203125 C 21.582031 -33.203125 24.328125 -32.53125 26.734375 -31.1875 C 29.148438 -29.84375 31.03125 -27.953125 32.375 -25.515625 C 33.71875 -23.085938 34.390625 -20.296875 34.390625 -17.140625 Z M 27.328125 -19.265625 C 27.296875 -21.753906 26.410156 -23.75 24.671875 -25.25 C 22.929688 -26.757812 20.773438 -27.515625 18.203125 -27.515625 C 15.867188 -27.515625 13.867188 -26.769531 12.203125 -25.28125 C 10.546875 -23.800781 9.5625 -21.796875 9.25 -19.265625 Z M 27.328125 -19.265625 "/></g></g></g><g fill="#ffffff" fill-opacity="1"><g transform="translate(732.968671, 60.911142)"><g><path d="M 16.3125 0.53125 C 13.738281 0.53125 11.429688 0.0664062 9.390625 -0.859375 C 7.359375 -1.785156 5.75 -3.050781 4.5625 -4.65625 C 3.375 -6.257812 2.742188 -8.046875 2.671875 -10.015625 L 9.671875 -10.015625 C 9.785156 -8.640625 10.441406 -7.484375 11.640625 -6.546875 C 12.847656 -5.617188 14.363281 -5.15625 16.1875 -5.15625 C 18.082031 -5.15625 19.550781 -5.519531 20.59375 -6.25 C 21.644531 -6.988281 22.171875 -7.929688 22.171875 -9.078125 C 22.171875 -10.296875 21.585938 -11.203125 20.421875 -11.796875 C 19.253906 -12.390625 17.410156 -13.039062 14.890625 -13.75 C 12.429688 -14.425781 10.429688 -15.078125 8.890625 -15.703125 C 7.347656 -16.335938 6.015625 -17.304688 4.890625 -18.609375 C 3.765625 -19.921875 3.203125 -21.644531 3.203125 -23.78125 C 3.203125 -25.519531 3.710938 -27.109375 4.734375 -28.546875 C 5.765625 -29.992188 7.238281 -31.128906 9.15625 -31.953125 C 11.070312 -32.785156 13.273438 -33.203125 15.765625 -33.203125 C 19.484375 -33.203125 22.476562 -32.265625 24.75 -30.390625 C 27.03125 -28.515625 28.25 -25.953125 28.40625 -22.703125 L 21.640625 -22.703125 C 21.523438 -24.171875 20.929688 -25.335938 19.859375 -26.203125 C 18.796875 -27.078125 17.351562 -27.515625 15.53125 -27.515625 C 13.757812 -27.515625 12.394531 -27.175781 11.4375 -26.5 C 10.488281 -25.832031 10.015625 -24.945312 10.015625 -23.84375 C 10.015625 -22.96875 10.332031 -22.234375 10.96875 -21.640625 C 11.601562 -21.046875 12.375 -20.582031 13.28125 -20.25 C 14.1875 -19.914062 15.53125 -19.488281 17.3125 -18.96875 C 19.6875 -18.34375 21.632812 -17.703125 23.15625 -17.046875 C 24.675781 -16.390625 25.988281 -15.429688 27.09375 -14.171875 C 28.207031 -12.910156 28.78125 -11.226562 28.8125 -9.125 C 28.8125 -7.269531 28.296875 -5.609375 27.265625 -4.140625 C 26.242188 -2.679688 24.796875 -1.535156 22.921875 -0.703125 C 21.046875 0.117188 18.84375 0.53125 16.3125 0.53125 Z M 16.3125 0.53125 "/></g></g></g></g></g><g transform="matrix(1, 0, 0, 1, 47, 293)"><g clip-path="url(#ce4d923c69)"><g fill="#ffffff" fill-opacity="1"><g transform="translate(0.472532, 187.916828)"><g><path d="M 8.703125 0 C 8.179688 0 7.921875 -0.328125 7.921875 -0.984375 L 8.3125 -136.953125 C 8.3125 -137.484375 8.578125 -137.75 9.109375 -137.75 L 47.109375 -137.75 C 54.617188 -137.75 61.34375 -135.929688 67.28125 -132.296875 C 73.21875 -128.671875 77.898438 -123.890625 81.328125 -117.953125 C 84.765625 -112.015625 86.484375 -105.550781 86.484375 -98.5625 C 86.484375 -92.882812 85.195312 -87.601562 82.625 -82.71875 C 80.050781 -77.84375 76.984375 -73.882812 73.421875 -70.84375 C 77.242188 -67.019531 80.210938 -62.597656 82.328125 -57.578125 C 84.441406 -52.566406 85.5 -47.296875 85.5 -41.765625 C 85.5 -34.109375 83.648438 -27.113281 79.953125 -20.78125 C 76.253906 -14.445312 71.269531 -9.398438 65 -5.640625 C 58.738281 -1.878906 51.785156 0 44.140625 0 Z M 32.0625 -83.125 L 47.109375 -83.125 C 51.722656 -83.125 55.445312 -84.738281 58.28125 -87.96875 C 61.113281 -91.195312 62.53125 -94.726562 62.53125 -98.5625 C 62.53125 -102.78125 61.015625 -106.4375 57.984375 -109.53125 C 54.953125 -112.632812 51.328125 -114.1875 47.109375 -114.1875 L 32.0625 -114.1875 Z M 31.859375 -24.140625 L 44.140625 -24.140625 C 48.878906 -24.140625 52.960938 -25.890625 56.390625 -29.390625 C 59.828125 -32.890625 61.546875 -37.015625 61.546875 -41.765625 C 61.546875 -46.515625 59.828125 -50.601562 56.390625 -54.03125 C 52.960938 -57.457031 48.878906 -59.171875 44.140625 -59.171875 L 32.0625 -59.171875 Z M 31.859375 -24.140625 "/></g></g></g><g fill="#ffffff" fill-opacity="1"><g transform="translate(92.29261, 187.916828)"><g><path d="M 8.703125 0 C 8.179688 0 7.921875 -0.328125 7.921875 -0.984375 L 8.109375 -136.953125 C 8.109375 -137.484375 8.375 -137.75 8.90625 -137.75 L 72.4375 -137.75 C 72.957031 -137.75 73.21875 -137.414062 73.21875 -136.75 L 73.21875 -114.59375 C 73.21875 -114.0625 72.957031 -113.796875 72.4375 -113.796875 L 31.859375 -113.796875 L 31.859375 -82.921875 L 72.4375 -82.921875 C 72.957031 -82.921875 73.21875 -82.65625 73.21875 -82.125 L 73.421875 -59.765625 C 73.421875 -59.234375 73.15625 -58.96875 72.625 -58.96875 L 31.859375 -58.96875 L 31.859375 -24.34375 L 72.625 -24.34375 C 73.15625 -24.34375 73.421875 -24.015625 73.421875 -23.359375 L 73.421875 -0.796875 C 73.421875 -0.265625 73.15625 0 72.625 0 Z M 8.703125 0 "/></g></g></g><g fill="#ffffff" fill-opacity="1"><g transform="translate(175.405606, 187.916828)"><g><path d="M 41.5625 1.984375 C 34.4375 1.984375 27.9375 0.171875 22.0625 -3.453125 C 16.195312 -7.085938 11.515625 -11.90625 8.015625 -17.90625 C 4.515625 -23.914062 2.765625 -30.546875 2.765625 -37.796875 L 2.765625 -46.90625 C 2.765625 -47.5625 3.097656 -47.890625 3.765625 -47.890625 L 25.921875 -47.890625 C 26.453125 -47.890625 26.71875 -47.5625 26.71875 -46.90625 L 26.71875 -37.796875 C 26.71875 -33.441406 28.164062 -29.710938 31.0625 -26.609375 C 33.96875 -23.515625 37.46875 -21.96875 41.5625 -21.96875 C 45.65625 -21.96875 49.148438 -23.550781 52.046875 -26.71875 C 54.953125 -29.882812 56.40625 -33.578125 56.40625 -37.796875 C 56.40625 -42.679688 53.238281 -46.90625 46.90625 -50.46875 C 44.789062 -51.65625 41.488281 -53.5 37 -56 C 32.519531 -58.507812 28.300781 -60.882812 24.34375 -63.125 C 17.082031 -67.351562 11.703125 -72.664062 8.203125 -79.0625 C 4.710938 -85.457031 2.96875 -92.679688 2.96875 -100.734375 C 2.96875 -108.117188 4.75 -114.75 8.3125 -120.625 C 11.875 -126.5 16.585938 -131.148438 22.453125 -134.578125 C 28.328125 -138.003906 34.695312 -139.71875 41.5625 -139.71875 C 48.550781 -139.71875 54.976562 -137.96875 60.84375 -134.46875 C 66.71875 -130.976562 71.40625 -126.296875 74.90625 -120.421875 C 78.40625 -114.554688 80.15625 -107.992188 80.15625 -100.734375 L 80.15625 -84.5 C 80.15625 -83.976562 79.890625 -83.71875 79.359375 -83.71875 L 57.1875 -83.71875 C 56.664062 -83.71875 56.40625 -83.976562 56.40625 -84.5 L 56.203125 -100.734375 C 56.203125 -105.347656 54.75 -109.109375 51.84375 -112.015625 C 48.945312 -114.921875 45.519531 -116.375 41.5625 -116.375 C 37.46875 -116.375 33.96875 -114.820312 31.0625 -111.71875 C 28.164062 -108.613281 26.71875 -104.953125 26.71875 -100.734375 C 26.71875 -96.378906 27.640625 -92.75 29.484375 -89.84375 C 31.335938 -86.945312 34.703125 -84.175781 39.578125 -81.53125 C 40.242188 -81.132812 41.53125 -80.441406 43.4375 -79.453125 C 45.351562 -78.460938 47.429688 -77.34375 49.671875 -76.09375 C 51.910156 -74.84375 53.921875 -73.753906 55.703125 -72.828125 C 57.484375 -71.898438 58.570312 -71.304688 58.96875 -71.046875 C 65.570312 -67.347656 70.785156 -62.828125 74.609375 -57.484375 C 78.429688 -52.148438 80.34375 -45.585938 80.34375 -37.796875 C 80.34375 -30.273438 78.59375 -23.515625 75.09375 -17.515625 C 71.601562 -11.515625 66.921875 -6.765625 61.046875 -3.265625 C 55.179688 0.234375 48.6875 1.984375 41.5625 1.984375 Z M 41.5625 1.984375 "/></g></g></g><g fill="#ffffff" fill-opacity="1"><g transform="translate(261.68481, 187.916828)"><g><path d="M 27.703125 0 C 27.179688 0 26.921875 -0.328125 26.921875 -0.984375 L 26.921875 -113.796875 L 1.1875 -113.796875 C 0.53125 -113.796875 0.203125 -114.125 0.203125 -114.78125 L 0.390625 -136.953125 C 0.390625 -137.484375 0.65625 -137.75 1.1875 -137.75 L 76.390625 -137.75 C 77.046875 -137.75 77.375 -137.484375 77.375 -136.953125 L 77.375 -114.78125 C 77.375 -114.125 77.113281 -113.796875 76.59375 -113.796875 L 50.65625 -113.796875 L 50.859375 -0.984375 C 50.859375 -0.328125 50.59375 0 50.0625 0 Z M 27.703125 0 "/></g></g></g><g fill="#ffffff" fill-opacity="1"><g transform="translate(340.840051, 187.916828)"><g/></g></g><g fill="#ffffff" fill-opacity="1"><g transform="translate(370.127483, 187.916828)"><g><path d="M 8.90625 0 C 8.25 0 7.921875 -0.328125 7.921875 -0.984375 L 8.3125 -136.953125 C 8.3125 -137.484375 8.578125 -137.75 9.109375 -137.75 L 47.109375 -137.75 C 59.242188 -137.75 68.835938 -134.050781 75.890625 -126.65625 C 82.953125 -119.269531 86.484375 -109.242188 86.484375 -96.578125 C 86.484375 -87.210938 84.632812 -79.097656 80.9375 -72.234375 C 77.25 -65.367188 72.4375 -60.085938 66.5 -56.390625 C 60.5625 -52.703125 54.097656 -50.859375 47.109375 -50.859375 L 32.0625 -50.859375 L 32.0625 -0.984375 C 32.0625 -0.328125 31.734375 0 31.078125 0 Z M 32.0625 -74.8125 L 47.109375 -74.8125 C 51.328125 -74.8125 54.984375 -76.820312 58.078125 -80.84375 C 61.179688 -84.863281 62.734375 -90.109375 62.734375 -96.578125 C 62.734375 -101.722656 61.347656 -105.941406 58.578125 -109.234375 C 55.804688 -112.535156 51.984375 -114.1875 47.109375 -114.1875 L 32.0625 -114 Z M 32.0625 -74.8125 "/></g></g></g><g fill="#ffffff" fill-opacity="1"><g transform="translate(460.562357, 187.916828)"><g><path d="M 8.703125 0 C 8.179688 0 7.921875 -0.328125 7.921875 -0.984375 L 8.3125 -136.953125 C 8.3125 -137.484375 8.578125 -137.75 9.109375 -137.75 L 49.078125 -137.75 C 56.203125 -137.75 62.765625 -136 68.765625 -132.5 C 74.773438 -129 79.5625 -124.3125 83.125 -118.4375 C 86.6875 -112.570312 88.46875 -105.945312 88.46875 -98.5625 C 88.46875 -93.675781 87.738281 -89.285156 86.28125 -85.390625 C 84.832031 -81.503906 83.117188 -78.207031 81.140625 -75.5 C 79.160156 -72.789062 77.378906 -70.78125 75.796875 -69.46875 C 82.921875 -61.550781 86.484375 -52.25 86.484375 -41.5625 L 86.6875 -0.984375 C 86.6875 -0.328125 86.351562 0 85.6875 0 L 63.328125 0 C 62.796875 0 62.53125 -0.195312 62.53125 -0.59375 L 62.53125 -41.5625 C 62.53125 -46.3125 60.847656 -50.429688 57.484375 -53.921875 C 54.117188 -57.421875 50 -59.171875 45.125 -59.171875 L 32.0625 -59.171875 L 31.859375 -0.984375 C 31.859375 -0.328125 31.597656 0 31.078125 0 Z M 32.0625 -82.921875 L 49.078125 -82.921875 C 53.171875 -82.921875 56.800781 -84.4375 59.96875 -87.46875 C 63.132812 -90.507812 64.71875 -94.207031 64.71875 -98.5625 C 64.71875 -102.78125 63.164062 -106.40625 60.0625 -109.4375 C 56.957031 -112.476562 53.296875 -114 49.078125 -114 L 32.0625 -114 Z M 32.0625 -82.921875 "/></g></g></g><g fill="#ffffff" fill-opacity="1"><g transform="translate(555.944418, 187.916828)"><g><path d="M 8.90625 0 C 8.25 0 7.921875 -0.328125 7.921875 -0.984375 L 8.109375 -136.953125 C 8.109375 -137.484375 8.375 -137.75 8.90625 -137.75 L 31.078125 -137.75 C 31.597656 -137.75 31.859375 -137.484375 31.859375 -136.953125 L 32.0625 -0.984375 C 32.0625 -0.328125 31.796875 0 31.265625 0 Z M 8.90625 0 "/></g></g></g><g fill="#ffffff" fill-opacity="1"><g transform="translate(597.500889, 187.916828)"><g><path d="M 44.328125 1.984375 C 37.078125 1.984375 30.515625 0.171875 24.640625 -3.453125 C 18.765625 -7.085938 14.113281 -11.9375 10.6875 -18 C 7.257812 -24.070312 5.546875 -30.867188 5.546875 -38.390625 L 5.734375 -100.140625 C 5.734375 -107.398438 7.414062 -114.03125 10.78125 -120.03125 C 14.144531 -126.03125 18.765625 -130.84375 24.640625 -134.46875 C 30.515625 -138.101562 37.078125 -139.921875 44.328125 -139.921875 C 51.585938 -139.921875 58.117188 -138.140625 63.921875 -134.578125 C 69.722656 -131.015625 74.335938 -126.226562 77.765625 -120.21875 C 81.203125 -114.21875 82.921875 -107.523438 82.921875 -100.140625 L 82.921875 -91.03125 C 82.921875 -90.507812 82.65625 -90.25 82.125 -90.25 L 59.96875 -90.25 C 59.4375 -90.25 59.171875 -90.507812 59.171875 -91.03125 L 59.171875 -100.140625 C 59.171875 -104.492188 57.75 -108.253906 54.90625 -111.421875 C 52.070312 -114.585938 48.546875 -116.171875 44.328125 -116.171875 C 39.578125 -116.171875 35.945312 -114.550781 33.4375 -111.3125 C 30.9375 -108.082031 29.6875 -104.359375 29.6875 -100.140625 L 29.6875 -38.390625 C 29.6875 -33.515625 31.101562 -29.554688 33.9375 -26.515625 C 36.78125 -23.484375 40.242188 -21.96875 44.328125 -21.96875 C 48.546875 -21.96875 52.070312 -23.648438 54.90625 -27.015625 C 57.75 -30.378906 59.171875 -34.171875 59.171875 -38.390625 L 59.171875 -47.5 C 59.171875 -48.03125 59.4375 -48.296875 59.96875 -48.296875 L 82.328125 -48.296875 C 82.859375 -48.296875 83.125 -48.03125 83.125 -47.5 L 83.125 -38.390625 C 83.125 -30.867188 81.375 -24.070312 77.875 -18 C 74.375 -11.9375 69.722656 -7.085938 63.921875 -3.453125 C 58.117188 0.171875 51.585938 1.984375 44.328125 1.984375 Z M 44.328125 1.984375 "/></g></g></g><g fill="#ffffff" fill-opacity="1"><g transform="translate(687.144218, 187.916828)"><g><path d="M 8.703125 0 C 8.179688 0 7.921875 -0.328125 7.921875 -0.984375 L 8.109375 -136.953125 C 8.109375 -137.484375 8.375 -137.75 8.90625 -137.75 L 72.4375 -137.75 C 72.957031 -137.75 73.21875 -137.414062 73.21875 -136.75 L 73.21875 -114.59375 C 73.21875 -114.0625 72.957031 -113.796875 72.4375 -113.796875 L 31.859375 -113.796875 L 31.859375 -82.921875 L 72.4375 -82.921875 C 72.957031 -82.921875 73.21875 -82.65625 73.21875 -82.125 L 73.421875 -59.765625 C 73.421875 -59.234375 73.15625 -58.96875 72.625 -58.96875 L 31.859375 -58.96875 L 31.859375 -24.34375 L 72.625 -24.34375 C 73.15625 -24.34375 73.421875 -24.015625 73.421875 -23.359375 L 73.421875 -0.796875 C 73.421875 -0.265625 73.15625 0 72.625 0 Z M 8.703125 0 "/></g></g></g></g></g><g transform="matrix(1, 0, 0, 1, 96, 51)"><g clip-path="url(#ce3656711e)"><g fill="#ffde59" fill-opacity="1"><g transform="translate(1.032112, 71.766621)"><g><path d="M 44.65625 -24.328125 C 44.65625 -16.441406 42.515625 -10.414062 38.234375 -6.25 C 33.960938 -2.082031 27.8125 0 19.78125 0 L 6.5625 0 L 6.5625 -47.734375 L 21.1875 -47.734375 C 28.601562 -47.734375 34.367188 -45.675781 38.484375 -41.5625 C 42.597656 -37.445312 44.65625 -31.703125 44.65625 -24.328125 Z M 38.78125 -24.125 C 38.78125 -30.351562 37.21875 -35.046875 34.09375 -38.203125 C 30.976562 -41.359375 26.335938 -42.9375 20.171875 -42.9375 L 12.109375 -42.9375 L 12.109375 -4.796875 L 18.875 -4.796875 C 25.488281 -4.796875 30.457031 -6.421875 33.78125 -9.671875 C 37.113281 -12.929688 38.78125 -17.75 38.78125 -24.125 Z M 38.78125 -24.125 "/></g></g></g><g fill="#ffde59" fill-opacity="1"><g transform="translate(49.771705, 71.766621)"><g><path d="M 6.5625 0 L 6.5625 -47.734375 L 12.109375 -47.734375 L 12.109375 0 Z M 6.5625 0 "/></g></g></g><g fill="#ffde59" fill-opacity="1"><g transform="translate(68.412234, 71.766621)"><g><path d="M 33.5 -12.703125 C 33.5 -8.503906 31.972656 -5.226562 28.921875 -2.875 C 25.878906 -0.519531 21.742188 0.65625 16.515625 0.65625 C 10.859375 0.65625 6.503906 -0.0703125 3.453125 -1.53125 L 3.453125 -6.890625 C 5.421875 -6.054688 7.554688 -5.398438 9.859375 -4.921875 C 12.160156 -4.453125 14.445312 -4.21875 16.71875 -4.21875 C 20.414062 -4.21875 23.195312 -4.914062 25.0625 -6.3125 C 26.9375 -7.71875 27.875 -9.671875 27.875 -12.171875 C 27.875 -13.828125 27.539062 -15.179688 26.875 -16.234375 C 26.21875 -17.296875 25.109375 -18.269531 23.546875 -19.15625 C 21.992188 -20.050781 19.628906 -21.066406 16.453125 -22.203125 C 12.015625 -23.785156 8.84375 -25.664062 6.9375 -27.84375 C 5.03125 -30.019531 4.078125 -32.863281 4.078125 -36.375 C 4.078125 -40.050781 5.457031 -42.976562 8.21875 -45.15625 C 10.988281 -47.332031 14.648438 -48.421875 19.203125 -48.421875 C 23.941406 -48.421875 28.300781 -47.546875 32.28125 -45.796875 L 30.5625 -40.96875 C 26.613281 -42.625 22.78125 -43.453125 19.0625 -43.453125 C 16.125 -43.453125 13.828125 -42.820312 12.171875 -41.5625 C 10.523438 -40.300781 9.703125 -38.546875 9.703125 -36.296875 C 9.703125 -34.648438 10.003906 -33.296875 10.609375 -32.234375 C 11.222656 -31.179688 12.25 -30.210938 13.6875 -29.328125 C 15.132812 -28.453125 17.351562 -27.476562 20.34375 -26.40625 C 25.34375 -24.625 28.785156 -22.707031 30.671875 -20.65625 C 32.554688 -18.613281 33.5 -15.960938 33.5 -12.703125 Z M 33.5 -12.703125 "/></g></g></g><g fill="#ffde59" fill-opacity="1"><g transform="translate(105.105675, 71.766621)"><g><path d="M 27 -43.453125 C 21.75 -43.453125 17.601562 -41.703125 14.5625 -38.203125 C 11.53125 -34.710938 10.015625 -29.929688 10.015625 -23.859375 C 10.015625 -17.617188 11.476562 -12.796875 14.40625 -9.390625 C 17.332031 -5.984375 21.507812 -4.28125 26.9375 -4.28125 C 30.257812 -4.28125 34.054688 -4.878906 38.328125 -6.078125 L 38.328125 -1.203125 C 35.015625 0.0351562 30.929688 0.65625 26.078125 0.65625 C 19.054688 0.65625 13.632812 -1.472656 9.8125 -5.734375 C 5.988281 -10.003906 4.078125 -16.066406 4.078125 -23.921875 C 4.078125 -28.847656 4.992188 -33.160156 6.828125 -36.859375 C 8.671875 -40.554688 11.328125 -43.40625 14.796875 -45.40625 C 18.273438 -47.414062 22.363281 -48.421875 27.0625 -48.421875 C 32.070312 -48.421875 36.445312 -47.503906 40.1875 -45.671875 L 37.84375 -40.90625 C 34.226562 -42.601562 30.613281 -43.453125 27 -43.453125 Z M 27 -43.453125 "/></g></g></g><g fill="#ffde59" fill-opacity="1"><g transform="translate(147.28353, 71.766621)"><g><path d="M 47.984375 -23.921875 C 47.984375 -16.285156 46.050781 -10.28125 42.1875 -5.90625 C 38.332031 -1.53125 32.960938 0.65625 26.078125 0.65625 C 19.054688 0.65625 13.632812 -1.492188 9.8125 -5.796875 C 5.988281 -10.097656 4.078125 -16.164062 4.078125 -24 C 4.078125 -31.769531 5.992188 -37.789062 9.828125 -42.0625 C 13.660156 -46.34375 19.101562 -48.484375 26.15625 -48.484375 C 33.007812 -48.484375 38.359375 -46.304688 42.203125 -41.953125 C 46.054688 -37.597656 47.984375 -31.585938 47.984375 -23.921875 Z M 9.953125 -23.921875 C 9.953125 -17.460938 11.328125 -12.5625 14.078125 -9.21875 C 16.835938 -5.882812 20.835938 -4.21875 26.078125 -4.21875 C 31.367188 -4.21875 35.363281 -5.878906 38.0625 -9.203125 C 40.757812 -12.535156 42.109375 -17.441406 42.109375 -23.921875 C 42.109375 -30.347656 40.765625 -35.21875 38.078125 -38.53125 C 35.390625 -41.851562 31.414062 -43.515625 26.15625 -43.515625 C 20.863281 -43.515625 16.835938 -41.84375 14.078125 -38.5 C 11.328125 -35.164062 9.953125 -30.304688 9.953125 -23.921875 Z M 9.953125 -23.921875 "/></g></g></g><g fill="#ffde59" fill-opacity="1"><g transform="translate(199.35296, 71.766621)"><g><path d="M 42.609375 -47.734375 L 42.609375 -16.84375 C 42.609375 -11.40625 40.960938 -7.128906 37.671875 -4.015625 C 34.390625 -0.898438 29.875 0.65625 24.125 0.65625 C 18.375 0.65625 13.925781 -0.910156 10.78125 -4.046875 C 7.644531 -7.179688 6.078125 -11.488281 6.078125 -16.96875 L 6.078125 -47.734375 L 11.625 -47.734375 L 11.625 -16.578125 C 11.625 -12.597656 12.710938 -9.539062 14.890625 -7.40625 C 17.066406 -5.28125 20.265625 -4.21875 24.484375 -4.21875 C 28.515625 -4.21875 31.613281 -5.285156 33.78125 -7.421875 C 35.957031 -9.566406 37.046875 -12.644531 37.046875 -16.65625 L 37.046875 -47.734375 Z M 42.609375 -47.734375 "/></g></g></g><g fill="#ffde59" fill-opacity="1"><g transform="translate(248.027267, 71.766621)"><g><path d="M 43.84375 0 L 37.515625 0 L 11.421875 -40.0625 L 11.171875 -40.0625 C 11.515625 -35.351562 11.6875 -31.039062 11.6875 -27.125 L 11.6875 0 L 6.5625 0 L 6.5625 -47.734375 L 12.828125 -47.734375 L 38.84375 -7.828125 L 39.109375 -7.828125 C 39.066406 -8.421875 38.96875 -10.3125 38.8125 -13.5 C 38.664062 -16.6875 38.613281 -18.96875 38.65625 -20.34375 L 38.65625 -47.734375 L 43.84375 -47.734375 Z M 43.84375 0 "/></g></g></g><g fill="#ffde59" fill-opacity="1"><g transform="translate(298.431774, 71.766621)"><g><path d="M 21.25 0 L 15.703125 0 L 15.703125 -42.796875 L 0.59375 -42.796875 L 0.59375 -47.734375 L 36.375 -47.734375 L 36.375 -42.796875 L 21.25 -42.796875 Z M 21.25 0 "/></g></g></g><g fill="#ffde59" fill-opacity="1"><g transform="translate(1.032112, 146.338205)"><g><path d="M 42.609375 -47.734375 L 42.609375 -16.84375 C 42.609375 -11.40625 40.960938 -7.128906 37.671875 -4.015625 C 34.390625 -0.898438 29.875 0.65625 24.125 0.65625 C 18.375 0.65625 13.925781 -0.910156 10.78125 -4.046875 C 7.644531 -7.179688 6.078125 -11.488281 6.078125 -16.96875 L 6.078125 -47.734375 L 11.625 -47.734375 L 11.625 -16.578125 C 11.625 -12.597656 12.710938 -9.539062 14.890625 -7.40625 C 17.066406 -5.28125 20.265625 -4.21875 24.484375 -4.21875 C 28.515625 -4.21875 31.613281 -5.285156 33.78125 -7.421875 C 35.957031 -9.566406 37.046875 -12.644531 37.046875 -16.65625 L 37.046875 -47.734375 Z M 42.609375 -47.734375 "/></g></g></g><g fill="#ffde59" fill-opacity="1"><g transform="translate(49.706414, 146.338205)"><g><path d="M 36.828125 -33.828125 C 36.828125 -28.992188 35.175781 -25.273438 31.875 -22.671875 C 28.582031 -20.066406 23.867188 -18.765625 17.734375 -18.765625 L 12.109375 -18.765625 L 12.109375 0 L 6.5625 0 L 6.5625 -47.734375 L 18.9375 -47.734375 C 30.863281 -47.734375 36.828125 -43.097656 36.828125 -33.828125 Z M 12.109375 -23.53125 L 17.109375 -23.53125 C 22.023438 -23.53125 25.582031 -24.320312 27.78125 -25.90625 C 29.976562 -27.5 31.078125 -30.050781 31.078125 -33.5625 C 31.078125 -36.71875 30.039062 -39.066406 27.96875 -40.609375 C 25.90625 -42.160156 22.6875 -42.9375 18.3125 -42.9375 L 12.109375 -42.9375 Z M 12.109375 -23.53125 "/></g></g></g><g fill="#ffde59" fill-opacity="1"><g transform="translate(89.958207, 146.338205)"><g/></g></g><g fill="#ffde59" fill-opacity="1"><g transform="translate(107.325554, 146.338205)"><g><path d="M 21.25 0 L 15.703125 0 L 15.703125 -42.796875 L 0.59375 -42.796875 L 0.59375 -47.734375 L 36.375 -47.734375 L 36.375 -42.796875 L 21.25 -42.796875 Z M 21.25 0 "/></g></g></g><g fill="#ffde59" fill-opacity="1"><g transform="translate(144.31281, 146.338205)"><g><path d="M 47.984375 -23.921875 C 47.984375 -16.285156 46.050781 -10.28125 42.1875 -5.90625 C 38.332031 -1.53125 32.960938 0.65625 26.078125 0.65625 C 19.054688 0.65625 13.632812 -1.492188 9.8125 -5.796875 C 5.988281 -10.097656 4.078125 -16.164062 4.078125 -24 C 4.078125 -31.769531 5.992188 -37.789062 9.828125 -42.0625 C 13.660156 -46.34375 19.101562 -48.484375 26.15625 -48.484375 C 33.007812 -48.484375 38.359375 -46.304688 42.203125 -41.953125 C 46.054688 -37.597656 47.984375 -31.585938 47.984375 -23.921875 Z M 9.953125 -23.921875 C 9.953125 -17.460938 11.328125 -12.5625 14.078125 -9.21875 C 16.835938 -5.882812 20.835938 -4.21875 26.078125 -4.21875 C 31.367188 -4.21875 35.363281 -5.878906 38.0625 -9.203125 C 40.757812 -12.535156 42.109375 -17.441406 42.109375 -23.921875 C 42.109375 -30.347656 40.765625 -35.21875 38.078125 -38.53125 C 35.390625 -41.851562 31.414062 -43.515625 26.15625 -43.515625 C 20.863281 -43.515625 16.835938 -41.84375 14.078125 -38.5 C 11.328125 -35.164062 9.953125 -30.304688 9.953125 -23.921875 Z M 9.953125 -23.921875 "/></g></g></g></g></g><g clip-path="url(#ab4d7fb979)"><g transform="matrix(1, 0, 0, 1, 441, -0.000000000000028422)"><g clip-path="url(#ee06e775ed)"><g fill="#ffde59" fill-opacity="1"><g transform="translate(0.857286, 195.973346)"><g><path d="M 45.0625 2.0625 C 37.757812 2.0625 31.039062 0.171875 24.90625 -3.609375 C 18.78125 -7.398438 13.851562 -12.394531 10.125 -18.59375 C 6.40625 -24.800781 4.546875 -31.628906 4.546875 -39.078125 L 4.546875 -51.890625 C 4.546875 -57.679688 5.644531 -63.09375 7.84375 -68.125 C 10.050781 -73.15625 13.019531 -77.597656 16.75 -81.453125 C 13.71875 -84.765625 11.335938 -88.660156 9.609375 -93.140625 C 7.890625 -97.617188 7.03125 -102.40625 7.03125 -107.5 C 7.03125 -114.664062 8.71875 -121.175781 12.09375 -127.03125 C 15.46875 -132.894531 20.050781 -137.546875 25.84375 -140.984375 C 31.632812 -144.429688 38.039062 -146.15625 45.0625 -146.15625 C 52.09375 -146.15625 58.46875 -144.398438 64.1875 -140.890625 C 69.90625 -137.378906 74.488281 -132.726562 77.9375 -126.9375 C 81.382812 -121.144531 83.109375 -114.664062 83.109375 -107.5 C 83.109375 -102.40625 82.242188 -97.648438 80.515625 -93.234375 C 78.796875 -88.828125 76.421875 -84.898438 73.390625 -81.453125 C 77.109375 -77.734375 80.035156 -73.320312 82.171875 -68.21875 C 84.304688 -63.125 85.375 -57.679688 85.375 -51.890625 L 85.375 -39.078125 C 85.375 -31.628906 83.546875 -24.769531 79.890625 -18.5 C 76.242188 -12.226562 71.390625 -7.234375 65.328125 -3.515625 C 59.265625 0.203125 52.507812 2.0625 45.0625 2.0625 Z M 45.0625 -93.65625 C 48.644531 -93.65625 51.710938 -95 54.265625 -97.6875 C 56.816406 -100.375 58.09375 -103.644531 58.09375 -107.5 C 58.09375 -111.363281 56.816406 -114.671875 54.265625 -117.421875 C 51.710938 -120.179688 48.644531 -121.5625 45.0625 -121.5625 C 41.476562 -121.5625 38.378906 -120.179688 35.765625 -117.421875 C 33.148438 -114.671875 31.84375 -111.363281 31.84375 -107.5 C 31.84375 -103.78125 33.148438 -100.539062 35.765625 -97.78125 C 38.378906 -95.03125 41.476562 -93.65625 45.0625 -93.65625 Z M 45.0625 -22.734375 C 49.34375 -22.734375 52.960938 -24.316406 55.921875 -27.484375 C 58.878906 -30.660156 60.359375 -34.523438 60.359375 -39.078125 L 60.359375 -51.890625 C 60.359375 -56.296875 58.878906 -60.117188 55.921875 -63.359375 C 52.960938 -66.597656 49.34375 -68.21875 45.0625 -68.21875 C 40.789062 -68.21875 37.140625 -66.632812 34.109375 -63.46875 C 31.078125 -60.300781 29.5625 -56.441406 29.5625 -51.890625 L 29.5625 -39.078125 C 29.5625 -34.660156 31.078125 -30.832031 34.109375 -27.59375 C 37.140625 -24.351562 40.789062 -22.734375 45.0625 -22.734375 Z M 45.0625 -22.734375 "/></g></g></g><g fill="#ffde59" fill-opacity="1"><g transform="translate(93.677019, 195.973346)"><g><path d="M 45.28125 2.0625 C 37.96875 2.0625 31.210938 0.203125 25.015625 -3.515625 C 18.816406 -7.234375 13.851562 -12.160156 10.125 -18.296875 C 6.40625 -24.429688 4.546875 -31.082031 4.546875 -38.25 L 4.546875 -44.453125 C 4.546875 -45.003906 4.890625 -45.28125 5.578125 -45.28125 L 28.9375 -45.28125 C 29.488281 -45.28125 29.765625 -45.003906 29.765625 -44.453125 L 29.765625 -39.6875 C 29.765625 -35 31.28125 -31.070312 34.3125 -27.90625 C 37.34375 -24.738281 41 -23.15625 45.28125 -23.15625 C 49.550781 -23.15625 53.164062 -24.773438 56.125 -28.015625 C 59.09375 -31.253906 60.578125 -35.144531 60.578125 -39.6875 L 60.578125 -53.75 C 60.578125 -58.019531 59.023438 -61.601562 55.921875 -64.5 C 52.816406 -67.394531 48.992188 -68.84375 44.453125 -68.84375 C 38.523438 -68.84375 33.628906 -66.5 29.765625 -61.8125 L 29.359375 -61.1875 L 7.234375 -62.84375 C 6.546875 -62.84375 6.203125 -63.1875 6.203125 -63.875 L 8.6875 -120.53125 L 9.921875 -143.0625 C 9.921875 -143.613281 10.195312 -143.890625 10.75 -143.890625 L 80.21875 -143.890625 C 80.769531 -143.890625 81.046875 -143.613281 81.046875 -143.0625 L 81.046875 -120.53125 C 81.046875 -119.84375 80.769531 -119.5 80.21875 -119.5 L 31.84375 -119.5 L 30.796875 -90.96875 C 32.453125 -91.789062 34.625 -92.476562 37.3125 -93.03125 C 40 -93.582031 42.445312 -93.859375 44.65625 -93.859375 C 52.09375 -93.859375 58.945312 -92.03125 65.21875 -88.375 C 71.488281 -84.726562 76.484375 -79.867188 80.203125 -73.796875 C 83.929688 -67.734375 85.796875 -61.050781 85.796875 -53.75 L 85.796875 -39.6875 C 85.796875 -32.113281 83.96875 -25.15625 80.3125 -18.8125 C 76.664062 -12.46875 71.773438 -7.398438 65.640625 -3.609375 C 59.503906 0.171875 52.71875 2.0625 45.28125 2.0625 Z M 45.28125 2.0625 "/></g></g></g><g fill="#ffde59" fill-opacity="1"><g transform="translate(183.189148, 195.973346)"><g><path d="M 29.96875 -77.109375 C 25.144531 -77.109375 20.703125 -78.347656 16.640625 -80.828125 C 12.578125 -83.304688 9.335938 -86.613281 6.921875 -90.75 C 4.515625 -94.882812 3.3125 -99.363281 3.3125 -104.1875 L 3.3125 -118.875 C 3.3125 -123.832031 4.515625 -128.378906 6.921875 -132.515625 C 9.335938 -136.648438 12.578125 -139.921875 16.640625 -142.328125 C 20.703125 -144.742188 25.144531 -145.953125 29.96875 -145.953125 C 34.9375 -145.953125 39.414062 -144.742188 43.40625 -142.328125 C 47.40625 -139.921875 50.578125 -136.648438 52.921875 -132.515625 C 55.265625 -128.378906 56.4375 -123.832031 56.4375 -118.875 L 56.4375 -104.1875 C 56.4375 -99.226562 55.226562 -94.710938 52.8125 -90.640625 C 50.40625 -86.578125 47.203125 -83.304688 43.203125 -80.828125 C 39.210938 -78.347656 34.800781 -77.109375 29.96875 -77.109375 Z M 15.09375 0 C 14.40625 0 14.195312 -0.34375 14.46875 -1.03125 L 96.953125 -143.0625 C 97.367188 -143.613281 97.785156 -143.890625 98.203125 -143.890625 L 122.1875 -143.890625 C 122.875 -143.890625 123.078125 -143.613281 122.796875 -143.0625 L 40.515625 -1.03125 C 40.242188 -0.34375 39.832031 0 39.28125 0 Z M 29.5625 -93.859375 C 32.320312 -93.859375 34.597656 -94.859375 36.390625 -96.859375 C 38.179688 -98.859375 39.078125 -101.300781 39.078125 -104.1875 L 39.078125 -118.453125 C 39.078125 -121.210938 38.179688 -123.59375 36.390625 -125.59375 C 34.597656 -127.59375 32.320312 -128.59375 29.5625 -128.59375 C 26.800781 -128.59375 24.488281 -127.59375 22.625 -125.59375 C 20.769531 -123.59375 19.84375 -121.210938 19.84375 -118.453125 L 19.84375 -104.1875 C 19.84375 -101.4375 20.804688 -99.023438 22.734375 -96.953125 C 24.671875 -94.890625 26.945312 -93.859375 29.5625 -93.859375 Z M 109.5625 2.0625 C 104.738281 2.0625 100.296875 0.820312 96.234375 -1.65625 C 92.171875 -4.132812 88.929688 -7.441406 86.515625 -11.578125 C 84.109375 -15.710938 82.90625 -20.191406 82.90625 -25.015625 L 82.90625 -39.6875 C 82.90625 -44.65625 84.109375 -49.207031 86.515625 -53.34375 C 88.929688 -57.476562 92.171875 -60.75 96.234375 -63.15625 C 100.296875 -65.570312 104.738281 -66.78125 109.5625 -66.78125 C 114.53125 -66.78125 119.007812 -65.570312 123 -63.15625 C 127 -60.75 130.171875 -57.476562 132.515625 -53.34375 C 134.859375 -49.207031 136.03125 -44.65625 136.03125 -39.6875 L 136.03125 -25.015625 C 136.03125 -20.054688 134.820312 -15.539062 132.40625 -11.46875 C 130 -7.40625 126.796875 -4.132812 122.796875 -1.65625 C 118.804688 0.820312 114.394531 2.0625 109.5625 2.0625 Z M 109.359375 -14.671875 C 112.117188 -14.671875 114.394531 -15.671875 116.1875 -17.671875 C 117.976562 -19.671875 118.875 -22.117188 118.875 -25.015625 L 118.875 -39.28125 C 118.875 -42.039062 117.976562 -44.414062 116.1875 -46.40625 C 114.394531 -48.40625 112.117188 -49.40625 109.359375 -49.40625 C 106.609375 -49.40625 104.300781 -48.40625 102.4375 -46.40625 C 100.570312 -44.414062 99.640625 -42.039062 99.640625 -39.28125 L 99.640625 -25.015625 C 99.640625 -22.253906 100.601562 -19.835938 102.53125 -17.765625 C 104.46875 -15.703125 106.742188 -14.671875 109.359375 -14.671875 Z M 109.359375 -14.671875 "/></g></g></g></g></g></g><g transform="matrix(1, 0, 0, 1, 233, 559)"><g clip-path="url(#b63292f2b0)"><g fill="#5e17eb" fill-opacity="1"><g transform="translate(0.973642, 42.130724)"><g><path d="M 14.578125 -16.671875 L 9.640625 -16.671875 L 9.640625 0 L 3.921875 0 L 3.921875 -16.671875 L 0.765625 -16.671875 L 0.765625 -19.421875 L 3.921875 -20.953125 L 3.921875 -22.5 C 3.921875 -24.882812 4.503906 -26.625 5.671875 -27.71875 C 6.847656 -28.820312 8.734375 -29.375 11.328125 -29.375 C 13.296875 -29.375 15.050781 -29.082031 16.59375 -28.5 L 15.125 -24.296875 C 13.976562 -24.660156 12.914062 -24.84375 11.9375 -24.84375 C 11.125 -24.84375 10.535156 -24.597656 10.171875 -24.109375 C 9.816406 -23.628906 9.640625 -23.015625 9.640625 -22.265625 L 9.640625 -20.953125 L 14.578125 -20.953125 Z M 14.578125 -16.671875 "/></g></g></g><g fill="#5e17eb" fill-opacity="1"><g transform="translate(15.832229, 42.130724)"><g><path d="M 14.703125 -21.34375 C 15.472656 -21.34375 16.113281 -21.289062 16.625 -21.1875 L 16.203125 -15.828125 C 15.734375 -15.953125 15.171875 -16.015625 14.515625 -16.015625 C 12.679688 -16.015625 11.253906 -15.546875 10.234375 -14.609375 C 9.222656 -13.671875 8.71875 -12.359375 8.71875 -10.671875 L 8.71875 0 L 3 0 L 3 -20.953125 L 7.328125 -20.953125 L 8.171875 -17.4375 L 8.453125 -17.4375 C 9.097656 -18.613281 9.972656 -19.554688 11.078125 -20.265625 C 12.191406 -20.984375 13.398438 -21.34375 14.703125 -21.34375 Z M 14.703125 -21.34375 "/></g></g></g><g fill="#5e17eb" fill-opacity="1"><g transform="translate(33.25781, 42.130724)"><g><path d="M 11.671875 -17.28125 C 10.460938 -17.28125 9.515625 -16.894531 8.828125 -16.125 C 8.140625 -15.363281 7.742188 -14.273438 7.640625 -12.859375 L 15.671875 -12.859375 C 15.648438 -14.273438 15.28125 -15.363281 14.5625 -16.125 C 13.851562 -16.894531 12.890625 -17.28125 11.671875 -17.28125 Z M 12.484375 0.375 C 9.109375 0.375 6.46875 -0.554688 4.5625 -2.421875 C 2.664062 -4.285156 1.71875 -6.921875 1.71875 -10.328125 C 1.71875 -13.835938 2.59375 -16.550781 4.34375 -18.46875 C 6.101562 -20.382812 8.535156 -21.34375 11.640625 -21.34375 C 14.597656 -21.34375 16.898438 -20.5 18.546875 -18.8125 C 20.203125 -17.132812 21.03125 -14.804688 21.03125 -11.828125 L 21.03125 -9.046875 L 7.515625 -9.046875 C 7.578125 -7.421875 8.054688 -6.148438 8.953125 -5.234375 C 9.859375 -4.328125 11.125 -3.875 12.75 -3.875 C 14.007812 -3.875 15.203125 -4.003906 16.328125 -4.265625 C 17.453125 -4.535156 18.625 -4.957031 19.84375 -5.53125 L 19.84375 -1.109375 C 18.851562 -0.609375 17.785156 -0.238281 16.640625 0 C 15.503906 0.25 14.117188 0.375 12.484375 0.375 Z M 12.484375 0.375 "/></g></g></g><g fill="#5e17eb" fill-opacity="1"><g transform="translate(55.929803, 42.130724)"><g><path d="M 11.671875 -17.28125 C 10.460938 -17.28125 9.515625 -16.894531 8.828125 -16.125 C 8.140625 -15.363281 7.742188 -14.273438 7.640625 -12.859375 L 15.671875 -12.859375 C 15.648438 -14.273438 15.28125 -15.363281 14.5625 -16.125 C 13.851562 -16.894531 12.890625 -17.28125 11.671875 -17.28125 Z M 12.484375 0.375 C 9.109375 0.375 6.46875 -0.554688 4.5625 -2.421875 C 2.664062 -4.285156 1.71875 -6.921875 1.71875 -10.328125 C 1.71875 -13.835938 2.59375 -16.550781 4.34375 -18.46875 C 6.101562 -20.382812 8.535156 -21.34375 11.640625 -21.34375 C 14.597656 -21.34375 16.898438 -20.5 18.546875 -18.8125 C 20.203125 -17.132812 21.03125 -14.804688 21.03125 -11.828125 L 21.03125 -9.046875 L 7.515625 -9.046875 C 7.578125 -7.421875 8.054688 -6.148438 8.953125 -5.234375 C 9.859375 -4.328125 11.125 -3.875 12.75 -3.875 C 14.007812 -3.875 15.203125 -4.003906 16.328125 -4.265625 C 17.453125 -4.535156 18.625 -4.957031 19.84375 -5.53125 L 19.84375 -1.109375 C 18.851562 -0.609375 17.785156 -0.238281 16.640625 0 C 15.503906 0.25 14.117188 0.375 12.484375 0.375 Z M 12.484375 0.375 "/></g></g></g><g fill="#5e17eb" fill-opacity="1"><g transform="translate(0.973642, 95.395112)"><g><path d="M 17.625 -6.21875 C 17.625 -4.070312 16.875 -2.4375 15.375 -1.3125 C 13.882812 -0.1875 11.648438 0.375 8.671875 0.375 C 7.148438 0.375 5.851562 0.269531 4.78125 0.0625 C 3.707031 -0.144531 2.703125 -0.445312 1.765625 -0.84375 L 1.765625 -5.5625 C 2.828125 -5.0625 4.019531 -4.644531 5.34375 -4.3125 C 6.675781 -3.976562 7.847656 -3.8125 8.859375 -3.8125 C 10.941406 -3.8125 11.984375 -4.410156 11.984375 -5.609375 C 11.984375 -6.054688 11.84375 -6.421875 11.5625 -6.703125 C 11.289062 -6.984375 10.816406 -7.300781 10.140625 -7.65625 C 9.460938 -8.007812 8.5625 -8.425781 7.4375 -8.90625 C 5.832031 -9.582031 4.648438 -10.207031 3.890625 -10.78125 C 3.128906 -11.351562 2.578125 -12.007812 2.234375 -12.75 C 1.890625 -13.5 1.71875 -14.414062 1.71875 -15.5 C 1.71875 -17.363281 2.441406 -18.800781 3.890625 -19.8125 C 5.335938 -20.832031 7.382812 -21.34375 10.03125 -21.34375 C 12.550781 -21.34375 15.003906 -20.796875 17.390625 -19.703125 L 15.671875 -15.578125 C 14.617188 -16.023438 13.632812 -16.390625 12.71875 -16.671875 C 11.8125 -16.960938 10.882812 -17.109375 9.9375 -17.109375 C 8.25 -17.109375 7.40625 -16.65625 7.40625 -15.75 C 7.40625 -15.238281 7.675781 -14.796875 8.21875 -14.421875 C 8.757812 -14.046875 9.953125 -13.488281 11.796875 -12.75 C 13.429688 -12.082031 14.628906 -11.460938 15.390625 -10.890625 C 16.148438 -10.316406 16.710938 -9.65625 17.078125 -8.90625 C 17.441406 -8.15625 17.625 -7.257812 17.625 -6.21875 Z M 17.625 -6.21875 "/></g></g></g><g fill="#5e17eb" fill-opacity="1"><g transform="translate(20.048095, 95.395112)"><g><path d="M 22.34375 0 L 16.625 0 L 16.625 -12.234375 C 16.625 -15.265625 15.5 -16.78125 13.25 -16.78125 C 11.65625 -16.78125 10.5 -16.234375 9.78125 -15.140625 C 9.070312 -14.054688 8.71875 -12.296875 8.71875 -9.859375 L 8.71875 0 L 3 0 L 3 -29.171875 L 8.71875 -29.171875 L 8.71875 -23.21875 C 8.71875 -22.757812 8.671875 -21.675781 8.578125 -19.96875 L 8.453125 -18.28125 L 8.75 -18.28125 C 10.03125 -20.320312 12.054688 -21.34375 14.828125 -21.34375 C 17.285156 -21.34375 19.148438 -20.679688 20.421875 -19.359375 C 21.703125 -18.035156 22.34375 -16.140625 22.34375 -13.671875 Z M 22.34375 0 "/></g></g></g><g fill="#5e17eb" fill-opacity="1"><g transform="translate(45.268346, 95.395112)"><g><path d="M 2.75 -26.375 C 2.75 -28.238281 3.789062 -29.171875 5.875 -29.171875 C 7.945312 -29.171875 8.984375 -28.238281 8.984375 -26.375 C 8.984375 -25.488281 8.722656 -24.796875 8.203125 -24.296875 C 7.679688 -23.804688 6.90625 -23.5625 5.875 -23.5625 C 3.789062 -23.5625 2.75 -24.5 2.75 -26.375 Z M 8.71875 0 L 3 0 L 3 -20.953125 L 8.71875 -20.953125 Z M 8.71875 0 "/></g></g></g><g fill="#5e17eb" fill-opacity="1"><g transform="translate(56.979086, 95.395112)"><g><path d="M 14.515625 0.375 C 12.046875 0.375 10.113281 -0.519531 8.71875 -2.3125 L 8.421875 -2.3125 C 8.617188 -0.5625 8.71875 0.453125 8.71875 0.734375 L 8.71875 9.21875 L 3 9.21875 L 3 -20.953125 L 7.640625 -20.953125 L 8.453125 -18.234375 L 8.71875 -18.234375 C 10.050781 -20.304688 12.03125 -21.34375 14.65625 -21.34375 C 17.132812 -21.34375 19.070312 -20.382812 20.46875 -18.46875 C 21.863281 -16.5625 22.5625 -13.910156 22.5625 -10.515625 C 22.5625 -8.273438 22.234375 -6.332031 21.578125 -4.6875 C 20.921875 -3.039062 19.988281 -1.785156 18.78125 -0.921875 C 17.570312 -0.0546875 16.148438 0.375 14.515625 0.375 Z M 12.828125 -16.78125 C 11.410156 -16.78125 10.375 -16.34375 9.71875 -15.46875 C 9.070312 -14.601562 8.738281 -13.171875 8.71875 -11.171875 L 8.71875 -10.546875 C 8.71875 -8.296875 9.050781 -6.679688 9.71875 -5.703125 C 10.382812 -4.734375 11.441406 -4.25 12.890625 -4.25 C 15.453125 -4.25 16.734375 -6.363281 16.734375 -10.59375 C 16.734375 -12.65625 16.414062 -14.203125 15.78125 -15.234375 C 15.15625 -16.265625 14.171875 -16.78125 12.828125 -16.78125 Z M 12.828125 -16.78125 "/></g></g></g><g fill="#5e17eb" fill-opacity="1"><g transform="translate(81.262476, 95.395112)"><g><path d="M 14.515625 0.375 C 12.046875 0.375 10.113281 -0.519531 8.71875 -2.3125 L 8.421875 -2.3125 C 8.617188 -0.5625 8.71875 0.453125 8.71875 0.734375 L 8.71875 9.21875 L 3 9.21875 L 3 -20.953125 L 7.640625 -20.953125 L 8.453125 -18.234375 L 8.71875 -18.234375 C 10.050781 -20.304688 12.03125 -21.34375 14.65625 -21.34375 C 17.132812 -21.34375 19.070312 -20.382812 20.46875 -18.46875 C 21.863281 -16.5625 22.5625 -13.910156 22.5625 -10.515625 C 22.5625 -8.273438 22.234375 -6.332031 21.578125 -4.6875 C 20.921875 -3.039062 19.988281 -1.785156 18.78125 -0.921875 C 17.570312 -0.0546875 16.148438 0.375 14.515625 0.375 Z M 12.828125 -16.78125 C 11.410156 -16.78125 10.375 -16.34375 9.71875 -15.46875 C 9.070312 -14.601562 8.738281 -13.171875 8.71875 -11.171875 L 8.71875 -10.546875 C 8.71875 -8.296875 9.050781 -6.679688 9.71875 -5.703125 C 10.382812 -4.734375 11.441406 -4.25 12.890625 -4.25 C 15.453125 -4.25 16.734375 -6.363281 16.734375 -10.59375 C 16.734375 -12.65625 16.414062 -14.203125 15.78125 -15.234375 C 15.15625 -16.265625 14.171875 -16.78125 12.828125 -16.78125 Z M 12.828125 -16.78125 "/></g></g></g><g fill="#5e17eb" fill-opacity="1"><g transform="translate(105.545866, 95.395112)"><g><path d="M 2.75 -26.375 C 2.75 -28.238281 3.789062 -29.171875 5.875 -29.171875 C 7.945312 -29.171875 8.984375 -28.238281 8.984375 -26.375 C 8.984375 -25.488281 8.722656 -24.796875 8.203125 -24.296875 C 7.679688 -23.804688 6.90625 -23.5625 5.875 -23.5625 C 3.789062 -23.5625 2.75 -24.5 2.75 -26.375 Z M 8.71875 0 L 3 0 L 3 -20.953125 L 8.71875 -20.953125 Z M 8.71875 0 "/></g></g></g><g fill="#5e17eb" fill-opacity="1"><g transform="translate(117.256605, 95.395112)"><g><path d="M 22.34375 0 L 16.625 0 L 16.625 -12.234375 C 16.625 -13.753906 16.351562 -14.890625 15.8125 -15.640625 C 15.28125 -16.398438 14.425781 -16.78125 13.25 -16.78125 C 11.65625 -16.78125 10.5 -16.242188 9.78125 -15.171875 C 9.070312 -14.109375 8.71875 -12.335938 8.71875 -9.859375 L 8.71875 0 L 3 0 L 3 -20.953125 L 7.359375 -20.953125 L 8.140625 -18.28125 L 8.453125 -18.28125 C 9.085938 -19.289062 9.960938 -20.050781 11.078125 -20.5625 C 12.203125 -21.082031 13.476562 -21.34375 14.90625 -21.34375 C 17.34375 -21.34375 19.191406 -20.679688 20.453125 -19.359375 C 21.710938 -18.046875 22.34375 -16.148438 22.34375 -13.671875 Z M 22.34375 0 "/></g></g></g><g fill="#5e17eb" fill-opacity="1"><g transform="translate(142.476856, 95.395112)"><g><path d="M 21.234375 -20.953125 L 21.234375 -18.046875 L 17.953125 -17.203125 C 18.554688 -16.265625 18.859375 -15.21875 18.859375 -14.0625 C 18.859375 -11.8125 18.070312 -10.054688 16.5 -8.796875 C 14.9375 -7.546875 12.757812 -6.921875 9.96875 -6.921875 L 8.9375 -6.96875 L 8.09375 -7.0625 C 7.507812 -6.613281 7.21875 -6.113281 7.21875 -5.5625 C 7.21875 -4.738281 8.265625 -4.328125 10.359375 -4.328125 L 13.921875 -4.328125 C 16.222656 -4.328125 17.976562 -3.832031 19.1875 -2.84375 C 20.394531 -1.863281 21 -0.414062 21 1.5 C 21 3.945312 19.972656 5.84375 17.921875 7.1875 C 15.878906 8.539062 12.945312 9.21875 9.125 9.21875 C 6.207031 9.21875 3.972656 8.707031 2.421875 7.6875 C 0.878906 6.675781 0.109375 5.25 0.109375 3.40625 C 0.109375 2.144531 0.5 1.085938 1.28125 0.234375 C 2.070312 -0.609375 3.234375 -1.210938 4.765625 -1.578125 C 4.171875 -1.828125 3.65625 -2.234375 3.21875 -2.796875 C 2.78125 -3.367188 2.5625 -3.972656 2.5625 -4.609375 C 2.5625 -5.410156 2.789062 -6.078125 3.25 -6.609375 C 3.71875 -7.140625 4.390625 -7.660156 5.265625 -8.171875 C 4.171875 -8.648438 3.300781 -9.410156 2.65625 -10.453125 C 2.007812 -11.503906 1.6875 -12.742188 1.6875 -14.171875 C 1.6875 -16.460938 2.429688 -18.226562 3.921875 -19.46875 C 5.410156 -20.71875 7.535156 -21.34375 10.296875 -21.34375 C 10.878906 -21.34375 11.570312 -21.289062 12.375 -21.1875 C 13.1875 -21.082031 13.703125 -21.003906 13.921875 -20.953125 Z M 5.0625 2.96875 C 5.0625 3.75 5.4375 4.363281 6.1875 4.8125 C 6.945312 5.269531 8.007812 5.5 9.375 5.5 C 11.425781 5.5 13.03125 5.21875 14.1875 4.65625 C 15.351562 4.09375 15.9375 3.320312 15.9375 2.34375 C 15.9375 1.550781 15.59375 1.003906 14.90625 0.703125 C 14.21875 0.410156 13.15625 0.265625 11.71875 0.265625 L 8.75 0.265625 C 7.695312 0.265625 6.816406 0.507812 6.109375 1 C 5.410156 1.5 5.0625 2.15625 5.0625 2.96875 Z M 7.140625 -14.09375 C 7.140625 -12.957031 7.398438 -12.054688 7.921875 -11.390625 C 8.441406 -10.734375 9.234375 -10.40625 10.296875 -10.40625 C 11.367188 -10.40625 12.15625 -10.734375 12.65625 -11.390625 C 13.15625 -12.054688 13.40625 -12.957031 13.40625 -14.09375 C 13.40625 -16.625 12.367188 -17.890625 10.296875 -17.890625 C 8.191406 -17.890625 7.140625 -16.625 7.140625 -14.09375 Z M 7.140625 -14.09375 "/></g></g></g></g></g><g transform="matrix(1, 0, 0, 1, 589, 559)"><g clip-path="url(#c7a5a433e4)"><g fill="#5e17eb" fill-opacity="1"><g transform="translate(0.62719, 42.130724)"><g><path d="M 7.546875 -10.515625 C 7.546875 -8.441406 7.882812 -6.875 8.5625 -5.8125 C 9.25 -4.75 10.363281 -4.21875 11.90625 -4.21875 C 13.425781 -4.21875 14.519531 -4.742188 15.1875 -5.796875 C 15.863281 -6.859375 16.203125 -8.429688 16.203125 -10.515625 C 16.203125 -12.585938 15.863281 -14.140625 15.1875 -15.171875 C 14.507812 -16.210938 13.398438 -16.734375 11.859375 -16.734375 C 10.335938 -16.734375 9.238281 -16.21875 8.5625 -15.1875 C 7.882812 -14.15625 7.546875 -12.597656 7.546875 -10.515625 Z M 22.046875 -10.515625 C 22.046875 -7.109375 21.144531 -4.441406 19.34375 -2.515625 C 17.539062 -0.585938 15.035156 0.375 11.828125 0.375 C 9.816406 0.375 8.039062 -0.0625 6.5 -0.9375 C 4.96875 -1.820312 3.785156 -3.085938 2.953125 -4.734375 C 2.128906 -6.390625 1.71875 -8.316406 1.71875 -10.515625 C 1.71875 -13.941406 2.609375 -16.601562 4.390625 -18.5 C 6.179688 -20.394531 8.695312 -21.34375 11.9375 -21.34375 C 13.945312 -21.34375 15.71875 -20.90625 17.25 -20.03125 C 18.789062 -19.164062 19.972656 -17.910156 20.796875 -16.265625 C 21.628906 -14.628906 22.046875 -12.710938 22.046875 -10.515625 Z M 22.046875 -10.515625 "/></g></g></g><g fill="#5e17eb" fill-opacity="1"><g transform="translate(24.38594, 42.130724)"><g><path d="M 22.34375 0 L 16.625 0 L 16.625 -12.234375 C 16.625 -13.753906 16.351562 -14.890625 15.8125 -15.640625 C 15.28125 -16.398438 14.425781 -16.78125 13.25 -16.78125 C 11.65625 -16.78125 10.5 -16.242188 9.78125 -15.171875 C 9.070312 -14.109375 8.71875 -12.335938 8.71875 -9.859375 L 8.71875 0 L 3 0 L 3 -20.953125 L 7.359375 -20.953125 L 8.140625 -18.28125 L 8.453125 -18.28125 C 9.085938 -19.289062 9.960938 -20.050781 11.078125 -20.5625 C 12.203125 -21.082031 13.476562 -21.34375 14.90625 -21.34375 C 17.34375 -21.34375 19.191406 -20.679688 20.453125 -19.359375 C 21.710938 -18.046875 22.34375 -16.148438 22.34375 -13.671875 Z M 22.34375 0 "/></g></g></g><g fill="#5e17eb" fill-opacity="1"><g transform="translate(49.60619, 42.130724)"><g><path d="M 1.140625 -7.953125 L 1.140625 -12.640625 L 11.203125 -12.640625 L 11.203125 -7.953125 Z M 1.140625 -7.953125 "/></g></g></g><g fill="#5e17eb" fill-opacity="1"><g transform="translate(61.953994, 42.130724)"><g><path d="M 11.828125 -4.1875 C 12.828125 -4.1875 14.023438 -4.40625 15.421875 -4.84375 L 15.421875 -0.578125 C 14.003906 0.0546875 12.253906 0.375 10.171875 0.375 C 7.890625 0.375 6.226562 -0.203125 5.1875 -1.359375 C 4.144531 -2.515625 3.625 -4.25 3.625 -6.5625 L 3.625 -16.671875 L 0.875 -16.671875 L 0.875 -19.078125 L 4.03125 -21 L 5.6875 -25.421875 L 9.328125 -25.421875 L 9.328125 -20.953125 L 15.203125 -20.953125 L 15.203125 -16.671875 L 9.328125 -16.671875 L 9.328125 -6.5625 C 9.328125 -5.75 9.554688 -5.148438 10.015625 -4.765625 C 10.472656 -4.378906 11.078125 -4.1875 11.828125 -4.1875 Z M 11.828125 -4.1875 "/></g></g></g><g fill="#5e17eb" fill-opacity="1"><g transform="translate(78.61135, 42.130724)"><g><path d="M 2.75 -26.375 C 2.75 -28.238281 3.789062 -29.171875 5.875 -29.171875 C 7.945312 -29.171875 8.984375 -28.238281 8.984375 -26.375 C 8.984375 -25.488281 8.722656 -24.796875 8.203125 -24.296875 C 7.679688 -23.804688 6.90625 -23.5625 5.875 -23.5625 C 3.789062 -23.5625 2.75 -24.5 2.75 -26.375 Z M 8.71875 0 L 3 0 L 3 -20.953125 L 8.71875 -20.953125 Z M 8.71875 0 "/></g></g></g><g fill="#5e17eb" fill-opacity="1"><g transform="translate(90.32209, 42.130724)"><g><path d="M 21.765625 0 L 16.046875 0 L 16.046875 -12.234375 C 16.046875 -13.753906 15.789062 -14.890625 15.28125 -15.640625 C 14.78125 -16.398438 13.984375 -16.78125 12.890625 -16.78125 C 11.429688 -16.78125 10.367188 -16.238281 9.703125 -15.15625 C 9.046875 -14.082031 8.71875 -12.316406 8.71875 -9.859375 L 8.71875 0 L 3 0 L 3 -20.953125 L 7.359375 -20.953125 L 8.140625 -18.28125 L 8.453125 -18.28125 C 9.015625 -19.238281 9.828125 -19.988281 10.890625 -20.53125 C 11.953125 -21.070312 13.171875 -21.34375 14.546875 -21.34375 C 17.679688 -21.34375 19.804688 -20.320312 20.921875 -18.28125 L 21.421875 -18.28125 C 21.984375 -19.25 22.8125 -20 23.90625 -20.53125 C 25 -21.070312 26.234375 -21.34375 27.609375 -21.34375 C 29.984375 -21.34375 31.78125 -20.734375 33 -19.515625 C 34.21875 -18.304688 34.828125 -16.359375 34.828125 -13.671875 L 34.828125 0 L 29.09375 0 L 29.09375 -12.234375 C 29.09375 -13.753906 28.835938 -14.890625 28.328125 -15.640625 C 27.828125 -16.398438 27.03125 -16.78125 25.9375 -16.78125 C 24.539062 -16.78125 23.492188 -16.28125 22.796875 -15.28125 C 22.109375 -14.28125 21.765625 -12.691406 21.765625 -10.515625 Z M 21.765625 0 "/></g></g></g><g fill="#5e17eb" fill-opacity="1"><g transform="translate(128.002567, 42.130724)"><g><path d="M 11.671875 -17.28125 C 10.460938 -17.28125 9.515625 -16.894531 8.828125 -16.125 C 8.140625 -15.363281 7.742188 -14.273438 7.640625 -12.859375 L 15.671875 -12.859375 C 15.648438 -14.273438 15.28125 -15.363281 14.5625 -16.125 C 13.851562 -16.894531 12.890625 -17.28125 11.671875 -17.28125 Z M 12.484375 0.375 C 9.109375 0.375 6.46875 -0.554688 4.5625 -2.421875 C 2.664062 -4.285156 1.71875 -6.921875 1.71875 -10.328125 C 1.71875 -13.835938 2.59375 -16.550781 4.34375 -18.46875 C 6.101562 -20.382812 8.535156 -21.34375 11.640625 -21.34375 C 14.597656 -21.34375 16.898438 -20.5 18.546875 -18.8125 C 20.203125 -17.132812 21.03125 -14.804688 21.03125 -11.828125 L 21.03125 -9.046875 L 7.515625 -9.046875 C 7.578125 -7.421875 8.054688 -6.148438 8.953125 -5.234375 C 9.859375 -4.328125 11.125 -3.875 12.75 -3.875 C 14.007812 -3.875 15.203125 -4.003906 16.328125 -4.265625 C 17.453125 -4.535156 18.625 -4.957031 19.84375 -5.53125 L 19.84375 -1.109375 C 18.851562 -0.609375 17.785156 -0.238281 16.640625 0 C 15.503906 0.25 14.117188 0.375 12.484375 0.375 Z M 12.484375 0.375 "/></g></g></g><g fill="#5e17eb" fill-opacity="1"><g transform="translate(0.62719, 95.395112)"><g><path d="M 13.859375 -15.390625 L 24.71875 -15.390625 L 24.71875 -1.1875 C 22.957031 -0.601562 21.300781 -0.195312 19.75 0.03125 C 18.195312 0.257812 16.609375 0.375 14.984375 0.375 C 10.835938 0.375 7.675781 -0.835938 5.5 -3.265625 C 3.320312 -5.703125 2.234375 -9.191406 2.234375 -13.734375 C 2.234375 -18.160156 3.5 -21.609375 6.03125 -24.078125 C 8.5625 -26.554688 12.066406 -27.796875 16.546875 -27.796875 C 19.359375 -27.796875 22.070312 -27.234375 24.6875 -26.109375 L 22.75 -21.46875 C 20.75 -22.46875 18.671875 -22.96875 16.515625 -22.96875 C 14.003906 -22.96875 11.988281 -22.125 10.46875 -20.4375 C 8.957031 -18.75 8.203125 -16.476562 8.203125 -13.625 C 8.203125 -10.65625 8.8125 -8.382812 10.03125 -6.8125 C 11.25 -5.25 13.023438 -4.46875 15.359375 -4.46875 C 16.566406 -4.46875 17.796875 -4.59375 19.046875 -4.84375 L 19.046875 -10.546875 L 13.859375 -10.546875 Z M 13.859375 -15.390625 "/></g></g></g><g fill="#5e17eb" fill-opacity="1"><g transform="translate(28.414434, 95.395112)"><g><path d="M 17.84375 0 L 17.078125 -2.6875 L 16.78125 -2.6875 C 16.164062 -1.707031 15.296875 -0.953125 14.171875 -0.421875 C 13.046875 0.109375 11.765625 0.375 10.328125 0.375 C 7.867188 0.375 6.015625 -0.28125 4.765625 -1.59375 C 3.515625 -2.914062 2.890625 -4.816406 2.890625 -7.296875 L 2.890625 -20.953125 L 8.609375 -20.953125 L 8.609375 -8.71875 C 8.609375 -7.207031 8.875 -6.070312 9.40625 -5.3125 C 9.945312 -4.5625 10.804688 -4.1875 11.984375 -4.1875 C 13.578125 -4.1875 14.726562 -4.71875 15.4375 -5.78125 C 16.15625 -6.851562 16.515625 -8.625 16.515625 -11.09375 L 16.515625 -20.953125 L 22.234375 -20.953125 L 22.234375 0 Z M 17.84375 0 "/></g></g></g><g fill="#5e17eb" fill-opacity="1"><g transform="translate(53.634684, 95.395112)"><g><path d="M 16.3125 0 L 15.203125 -2.84375 L 15.046875 -2.84375 C 14.085938 -1.632812 13.097656 -0.796875 12.078125 -0.328125 C 11.054688 0.140625 9.726562 0.375 8.09375 0.375 C 6.082031 0.375 4.5 -0.195312 3.34375 -1.34375 C 2.1875 -2.5 1.609375 -4.140625 1.609375 -6.265625 C 1.609375 -8.484375 2.382812 -10.117188 3.9375 -11.171875 C 5.5 -12.234375 7.847656 -12.820312 10.984375 -12.9375 L 14.625 -13.046875 L 14.625 -13.96875 C 14.625 -16.09375 13.535156 -17.15625 11.359375 -17.15625 C 9.679688 -17.15625 7.710938 -16.648438 5.453125 -15.640625 L 3.5625 -19.5 C 5.96875 -20.757812 8.640625 -21.390625 11.578125 -21.390625 C 14.390625 -21.390625 16.546875 -20.773438 18.046875 -19.546875 C 19.546875 -18.328125 20.296875 -16.46875 20.296875 -13.96875 L 20.296875 0 Z M 14.625 -9.703125 L 12.40625 -9.640625 C 10.75 -9.585938 9.515625 -9.285156 8.703125 -8.734375 C 7.890625 -8.179688 7.484375 -7.34375 7.484375 -6.21875 C 7.484375 -4.613281 8.40625 -3.8125 10.25 -3.8125 C 11.570312 -3.8125 12.628906 -4.191406 13.421875 -4.953125 C 14.222656 -5.710938 14.625 -6.722656 14.625 -7.984375 Z M 14.625 -9.703125 "/></g></g></g><g fill="#5e17eb" fill-opacity="1"><g transform="translate(76.812581, 95.395112)"><g><path d="M 14.703125 -21.34375 C 15.472656 -21.34375 16.113281 -21.289062 16.625 -21.1875 L 16.203125 -15.828125 C 15.734375 -15.953125 15.171875 -16.015625 14.515625 -16.015625 C 12.679688 -16.015625 11.253906 -15.546875 10.234375 -14.609375 C 9.222656 -13.671875 8.71875 -12.359375 8.71875 -10.671875 L 8.71875 0 L 3 0 L 3 -20.953125 L 7.328125 -20.953125 L 8.171875 -17.4375 L 8.453125 -17.4375 C 9.097656 -18.613281 9.972656 -19.554688 11.078125 -20.265625 C 12.191406 -20.984375 13.398438 -21.34375 14.703125 -21.34375 Z M 14.703125 -21.34375 "/></g></g></g><g fill="#5e17eb" fill-opacity="1"><g transform="translate(94.238162, 95.395112)"><g><path d="M 16.3125 0 L 15.203125 -2.84375 L 15.046875 -2.84375 C 14.085938 -1.632812 13.097656 -0.796875 12.078125 -0.328125 C 11.054688 0.140625 9.726562 0.375 8.09375 0.375 C 6.082031 0.375 4.5 -0.195312 3.34375 -1.34375 C 2.1875 -2.5 1.609375 -4.140625 1.609375 -6.265625 C 1.609375 -8.484375 2.382812 -10.117188 3.9375 -11.171875 C 5.5 -12.234375 7.847656 -12.820312 10.984375 -12.9375 L 14.625 -13.046875 L 14.625 -13.96875 C 14.625 -16.09375 13.535156 -17.15625 11.359375 -17.15625 C 9.679688 -17.15625 7.710938 -16.648438 5.453125 -15.640625 L 3.5625 -19.5 C 5.96875 -20.757812 8.640625 -21.390625 11.578125 -21.390625 C 14.390625 -21.390625 16.546875 -20.773438 18.046875 -19.546875 C 19.546875 -18.328125 20.296875 -16.46875 20.296875 -13.96875 L 20.296875 0 Z M 14.625 -9.703125 L 12.40625 -9.640625 C 10.75 -9.585938 9.515625 -9.285156 8.703125 -8.734375 C 7.890625 -8.179688 7.484375 -7.34375 7.484375 -6.21875 C 7.484375 -4.613281 8.40625 -3.8125 10.25 -3.8125 C 11.570312 -3.8125 12.628906 -4.191406 13.421875 -4.953125 C 14.222656 -5.710938 14.625 -6.722656 14.625 -7.984375 Z M 14.625 -9.703125 "/></g></g></g><g fill="#5e17eb" fill-opacity="1"><g transform="translate(117.416058, 95.395112)"><g><path d="M 22.34375 0 L 16.625 0 L 16.625 -12.234375 C 16.625 -13.753906 16.351562 -14.890625 15.8125 -15.640625 C 15.28125 -16.398438 14.425781 -16.78125 13.25 -16.78125 C 11.65625 -16.78125 10.5 -16.242188 9.78125 -15.171875 C 9.070312 -14.109375 8.71875 -12.335938 8.71875 -9.859375 L 8.71875 0 L 3 0 L 3 -20.953125 L 7.359375 -20.953125 L 8.140625 -18.28125 L 8.453125 -18.28125 C 9.085938 -19.289062 9.960938 -20.050781 11.078125 -20.5625 C 12.203125 -21.082031 13.476562 -21.34375 14.90625 -21.34375 C 17.34375 -21.34375 19.191406 -20.679688 20.453125 -19.359375 C 21.710938 -18.046875 22.34375 -16.148438 22.34375 -13.671875 Z M 22.34375 0 "/></g></g></g><g fill="#5e17eb" fill-opacity="1"><g transform="translate(142.636309, 95.395112)"><g><path d="M 11.828125 -4.1875 C 12.828125 -4.1875 14.023438 -4.40625 15.421875 -4.84375 L 15.421875 -0.578125 C 14.003906 0.0546875 12.253906 0.375 10.171875 0.375 C 7.890625 0.375 6.226562 -0.203125 5.1875 -1.359375 C 4.144531 -2.515625 3.625 -4.25 3.625 -6.5625 L 3.625 -16.671875 L 0.875 -16.671875 L 0.875 -19.078125 L 4.03125 -21 L 5.6875 -25.421875 L 9.328125 -25.421875 L 9.328125 -20.953125 L 15.203125 -20.953125 L 15.203125 -16.671875 L 9.328125 -16.671875 L 9.328125 -6.5625 C 9.328125 -5.75 9.554688 -5.148438 10.015625 -4.765625 C 10.472656 -4.378906 11.078125 -4.1875 11.828125 -4.1875 Z M 11.828125 -4.1875 "/></g></g></g><g fill="#5e17eb" fill-opacity="1"><g transform="translate(159.293665, 95.395112)"><g><path d="M 11.671875 -17.28125 C 10.460938 -17.28125 9.515625 -16.894531 8.828125 -16.125 C 8.140625 -15.363281 7.742188 -14.273438 7.640625 -12.859375 L 15.671875 -12.859375 C 15.648438 -14.273438 15.28125 -15.363281 14.5625 -16.125 C 13.851562 -16.894531 12.890625 -17.28125 11.671875 -17.28125 Z M 12.484375 0.375 C 9.109375 0.375 6.46875 -0.554688 4.5625 -2.421875 C 2.664062 -4.285156 1.71875 -6.921875 1.71875 -10.328125 C 1.71875 -13.835938 2.59375 -16.550781 4.34375 -18.46875 C 6.101562 -20.382812 8.535156 -21.34375 11.640625 -21.34375 C 14.597656 -21.34375 16.898438 -20.5 18.546875 -18.8125 C 20.203125 -17.132812 21.03125 -14.804688 21.03125 -11.828125 L 21.03125 -9.046875 L 7.515625 -9.046875 C 7.578125 -7.421875 8.054688 -6.148438 8.953125 -5.234375 C 9.859375 -4.328125 11.125 -3.875 12.75 -3.875 C 14.007812 -3.875 15.203125 -4.003906 16.328125 -4.265625 C 17.453125 -4.535156 18.625 -4.957031 19.84375 -5.53125 L 19.84375 -1.109375 C 18.851562 -0.609375 17.785156 -0.238281 16.640625 0 C 15.503906 0.25 14.117188 0.375 12.484375 0.375 Z M 12.484375 0.375 "/></g></g></g><g fill="#5e17eb" fill-opacity="1"><g transform="translate(181.965658, 95.395112)"><g><path d="M 9.640625 0.375 C 7.171875 0.375 5.234375 -0.578125 3.828125 -2.484375 C 2.421875 -4.398438 1.71875 -7.050781 1.71875 -10.4375 C 1.71875 -13.875 2.429688 -16.550781 3.859375 -18.46875 C 5.296875 -20.382812 7.269531 -21.34375 9.78125 -21.34375 C 12.414062 -21.34375 14.429688 -20.320312 15.828125 -18.28125 L 16.015625 -18.28125 C 15.722656 -19.84375 15.578125 -21.234375 15.578125 -22.453125 L 15.578125 -29.171875 L 21.3125 -29.171875 L 21.3125 0 L 16.921875 0 L 15.828125 -2.71875 L 15.578125 -2.71875 C 14.273438 -0.65625 12.296875 0.375 9.640625 0.375 Z M 11.640625 -4.1875 C 13.097656 -4.1875 14.164062 -4.609375 14.84375 -5.453125 C 15.53125 -6.304688 15.90625 -7.75 15.96875 -9.78125 L 15.96875 -10.40625 C 15.96875 -12.65625 15.617188 -14.265625 14.921875 -15.234375 C 14.234375 -16.210938 13.109375 -16.703125 11.546875 -16.703125 C 10.273438 -16.703125 9.285156 -16.160156 8.578125 -15.078125 C 7.867188 -13.992188 7.515625 -12.421875 7.515625 -10.359375 C 7.515625 -8.296875 7.867188 -6.75 8.578125 -5.71875 C 9.296875 -4.695312 10.316406 -4.1875 11.640625 -4.1875 Z M 11.640625 -4.1875 "/></g></g></g></g></g></g></g></svg>