<svg xmlns="http://www.w3.org/2000/svg" xmlns:xlink="http://www.w3.org/1999/xlink" width="500" zoomAndPan="magnify" viewBox="0 0 375 374.999991" height="500" preserveAspectRatio="xMidYMid meet" version="1.0"><defs><clipPath id="cde6a28421"><path d="M 6.84375 10.128906 L 366 10.128906 L 366 366.554688 L 6.84375 366.554688 Z M 6.84375 10.128906 " clip-rule="nonzero"/></clipPath><clipPath id="044547d5a3"><path d="M 185.945312 10.128906 C 87.03125 10.128906 6.84375 89.917969 6.84375 188.34375 C 6.84375 286.765625 87.03125 366.554688 185.945312 366.554688 C 284.859375 366.554688 365.046875 286.765625 365.046875 188.34375 C 365.046875 89.917969 284.859375 10.128906 185.945312 10.128906 Z M 185.945312 10.128906 " clip-rule="nonzero"/></clipPath><clipPath id="07a5d05eb2"><path d="M 0.84375 0.128906 L 359 0.128906 L 359 356.554688 L 0.84375 356.554688 Z M 0.84375 0.128906 " clip-rule="nonzero"/></clipPath><clipPath id="3dc0826696"><path d="M 179.945312 0.128906 C 81.03125 0.128906 0.84375 79.917969 0.84375 178.34375 C 0.84375 276.765625 81.03125 356.554688 179.945312 356.554688 C 278.859375 356.554688 359.046875 276.765625 359.046875 178.34375 C 359.046875 79.917969 278.859375 0.128906 179.945312 0.128906 Z M 179.945312 0.128906 " clip-rule="nonzero"/></clipPath><clipPath id="eae5ca659b"><rect x="0" width="360" y="0" height="357"/></clipPath><clipPath id="438f078c96"><path d="M 233 267 L 290 267 L 290 323.84375 L 233 323.84375 Z M 233 267 " clip-rule="nonzero"/></clipPath><clipPath id="5d97e8be7b"><path d="M 119 267 L 177 267 L 177 323.84375 L 119 323.84375 Z M 119 267 " clip-rule="nonzero"/></clipPath><clipPath id="25e043ca66"><path d="M 50.84375 73 L 290 73 L 290 256 L 50.84375 256 Z M 50.84375 73 " clip-rule="nonzero"/></clipPath><clipPath id="df57b7c139"><path d="M 198 50.84375 L 323.84375 50.84375 L 323.84375 177 L 198 177 Z M 198 50.84375 " clip-rule="nonzero"/></clipPath><clipPath id="b68b9498dd"><path d="M 109.035156 146.5 L 148.433594 146.5 L 148.433594 185.898438 L 109.035156 185.898438 Z M 109.035156 146.5 " clip-rule="nonzero"/></clipPath><clipPath id="c7e5eff1a2"><path d="M 128.734375 146.5 C 117.855469 146.5 109.035156 155.320312 109.035156 166.199219 C 109.035156 177.078125 117.855469 185.898438 128.734375 185.898438 C 139.617188 185.898438 148.433594 177.078125 148.433594 166.199219 C 148.433594 155.320312 139.617188 146.5 128.734375 146.5 Z M 128.734375 146.5 " clip-rule="nonzero"/></clipPath><clipPath id="4f50815c18"><path d="M 0.0351562 0.5 L 39.433594 0.5 L 39.433594 39.898438 L 0.0351562 39.898438 Z M 0.0351562 0.5 " clip-rule="nonzero"/></clipPath><clipPath id="ab0d7f2e04"><path d="M 19.734375 0.5 C 8.855469 0.5 0.0351562 9.320312 0.0351562 20.199219 C 0.0351562 31.078125 8.855469 39.898438 19.734375 39.898438 C 30.617188 39.898438 39.433594 31.078125 39.433594 20.199219 C 39.433594 9.320312 30.617188 0.5 19.734375 0.5 Z M 19.734375 0.5 " clip-rule="nonzero"/></clipPath><clipPath id="d35a81af42"><rect x="0" width="40" y="0" height="40"/></clipPath><clipPath id="49dab30d3e"><path d="M 197.070312 46.847656 L 328.152344 46.847656 L 328.152344 177.929688 L 197.070312 177.929688 Z M 197.070312 46.847656 " clip-rule="nonzero"/></clipPath><clipPath id="5b39196d12"><path d="M 262.609375 46.847656 C 226.414062 46.847656 197.070312 76.191406 197.070312 112.390625 C 197.070312 148.585938 226.414062 177.929688 262.609375 177.929688 C 298.808594 177.929688 328.152344 148.585938 328.152344 112.390625 C 328.152344 76.191406 298.808594 46.847656 262.609375 46.847656 Z M 262.609375 46.847656 " clip-rule="nonzero"/></clipPath><clipPath id="7f4420a3ab"><path d="M 0.0703125 0.847656 L 131.152344 0.847656 L 131.152344 131.929688 L 0.0703125 131.929688 Z M 0.0703125 0.847656 " clip-rule="nonzero"/></clipPath><clipPath id="e6540c5793"><path d="M 65.609375 0.847656 C 29.414062 0.847656 0.0703125 30.191406 0.0703125 66.390625 C 0.0703125 102.585938 29.414062 131.929688 65.609375 131.929688 C 101.808594 131.929688 131.152344 102.585938 131.152344 66.390625 C 131.152344 30.191406 101.808594 0.847656 65.609375 0.847656 Z M 65.609375 0.847656 " clip-rule="nonzero"/></clipPath><clipPath id="887566589d"><rect x="0" width="132" y="0" height="132"/></clipPath><clipPath id="98c721ad63"><path d="M 214 84.230469 L 307.398438 84.230469 L 307.398438 156 L 214 156 Z M 214 84.230469 " clip-rule="nonzero"/></clipPath></defs><g clip-path="url(#cde6a28421)"><g clip-path="url(#044547d5a3)"><g transform="matrix(1, 0, 0, 1, 6, 10)"><g clip-path="url(#eae5ca659b)"><g clip-path="url(#07a5d05eb2)"><g clip-path="url(#3dc0826696)"><path fill="#ffffff" d="M 0.84375 0.128906 L 358.664062 0.128906 L 358.664062 356.554688 L 0.84375 356.554688 Z M 0.84375 0.128906 " fill-opacity="1" fill-rule="nonzero"/></g></g></g></g></g></g><g clip-path="url(#438f078c96)"><path fill="#053262" d="M 289.988281 295.679688 C 289.988281 296.613281 289.941406 297.542969 289.851562 298.472656 C 289.757812 299.398438 289.621094 300.320312 289.441406 301.234375 C 289.257812 302.148438 289.03125 303.054688 288.761719 303.945312 C 288.492188 304.835938 288.175781 305.714844 287.820312 306.574219 C 287.464844 307.4375 287.066406 308.277344 286.625 309.101562 C 286.1875 309.921875 285.707031 310.722656 285.1875 311.496094 C 284.671875 312.273438 284.117188 313.019531 283.523438 313.742188 C 282.933594 314.460938 282.308594 315.152344 281.648438 315.8125 C 280.988281 316.472656 280.300781 317.097656 279.578125 317.6875 C 278.859375 318.28125 278.109375 318.835938 277.335938 319.351562 C 276.558594 319.871094 275.761719 320.347656 274.9375 320.789062 C 274.117188 321.226562 273.273438 321.625 272.414062 321.984375 C 271.550781 322.339844 270.675781 322.652344 269.78125 322.925781 C 268.890625 323.195312 267.988281 323.421875 267.070312 323.601562 C 266.15625 323.785156 265.234375 323.921875 264.308594 324.011719 C 263.378906 324.105469 262.449219 324.148438 261.519531 324.148438 C 260.585938 324.148438 259.65625 324.105469 258.726562 324.011719 C 257.800781 323.921875 256.878906 323.785156 255.964844 323.601562 C 255.050781 323.421875 254.144531 323.195312 253.253906 322.925781 C 252.363281 322.652344 251.484375 322.339844 250.625 321.984375 C 249.761719 321.625 248.917969 321.226562 248.097656 320.789062 C 247.273438 320.347656 246.476562 319.871094 245.703125 319.351562 C 244.925781 318.835938 244.179688 318.28125 243.457031 317.6875 C 242.738281 317.097656 242.046875 316.472656 241.386719 315.8125 C 240.726562 315.152344 240.101562 314.460938 239.511719 313.742188 C 238.917969 313.019531 238.363281 312.273438 237.847656 311.496094 C 237.328125 310.722656 236.851562 309.921875 236.410156 309.101562 C 235.96875 308.277344 235.574219 307.4375 235.214844 306.574219 C 234.859375 305.714844 234.546875 304.835938 234.273438 303.945312 C 234.003906 303.054688 233.777344 302.148438 233.59375 301.234375 C 233.414062 300.320312 233.277344 299.398438 233.1875 298.472656 C 233.09375 297.542969 233.046875 296.613281 233.046875 295.679688 C 233.046875 294.75 233.09375 293.820312 233.1875 292.890625 C 233.277344 291.960938 233.414062 291.042969 233.59375 290.125 C 233.777344 289.210938 234.003906 288.308594 234.273438 287.417969 C 234.546875 286.523438 234.859375 285.648438 235.214844 284.785156 C 235.574219 283.925781 235.96875 283.082031 236.410156 282.261719 C 236.851562 281.4375 237.328125 280.640625 237.847656 279.863281 C 238.363281 279.089844 238.917969 278.339844 239.511719 277.621094 C 240.101562 276.898438 240.726562 276.210938 241.386719 275.550781 C 242.046875 274.890625 242.738281 274.265625 243.457031 273.675781 C 244.179688 273.082031 244.925781 272.527344 245.703125 272.007812 C 246.476562 271.492188 247.273438 271.011719 248.097656 270.574219 C 248.917969 270.132812 249.761719 269.734375 250.625 269.378906 C 251.484375 269.023438 252.363281 268.707031 253.253906 268.4375 C 254.144531 268.167969 255.050781 267.941406 255.964844 267.757812 C 256.878906 267.578125 257.800781 267.441406 258.726562 267.347656 C 259.65625 267.257812 260.585938 267.210938 261.519531 267.210938 C 262.449219 267.210938 263.378906 267.257812 264.308594 267.347656 C 265.234375 267.441406 266.15625 267.578125 267.070312 267.757812 C 267.988281 267.941406 268.890625 268.167969 269.78125 268.4375 C 270.675781 268.707031 271.550781 269.023438 272.414062 269.378906 C 273.273438 269.734375 274.117188 270.132812 274.9375 270.574219 C 275.761719 271.011719 276.558594 271.492188 277.335938 272.007812 C 278.109375 272.527344 278.859375 273.082031 279.578125 273.675781 C 280.300781 274.265625 280.988281 274.890625 281.648438 275.550781 C 282.308594 276.210938 282.933594 276.898438 283.523438 277.621094 C 284.117188 278.339844 284.671875 279.089844 285.1875 279.863281 C 285.707031 280.640625 286.1875 281.4375 286.625 282.261719 C 287.066406 283.082031 287.464844 283.925781 287.820312 284.785156 C 288.175781 285.648438 288.492188 286.523438 288.761719 287.417969 C 289.03125 288.308594 289.257812 289.210938 289.441406 290.125 C 289.621094 291.042969 289.757812 291.960938 289.851562 292.890625 C 289.941406 293.820312 289.988281 294.75 289.988281 295.679688 Z M 289.988281 295.679688 " fill-opacity="1" fill-rule="nonzero"/></g><g clip-path="url(#5d97e8be7b)"><path fill="#053262" d="M 176.109375 295.679688 C 176.109375 296.613281 176.066406 297.542969 175.972656 298.472656 C 175.882812 299.398438 175.746094 300.320312 175.5625 301.234375 C 175.382812 302.148438 175.15625 303.054688 174.882812 303.945312 C 174.613281 304.835938 174.300781 305.714844 173.941406 306.574219 C 173.585938 307.4375 173.1875 308.277344 172.75 309.101562 C 172.308594 309.921875 171.832031 310.722656 171.3125 311.496094 C 170.792969 312.273438 170.238281 313.019531 169.648438 313.742188 C 169.054688 314.460938 168.429688 315.152344 167.773438 315.8125 C 167.113281 316.472656 166.421875 317.097656 165.703125 317.6875 C 164.980469 318.28125 164.234375 318.835938 163.457031 319.351562 C 162.683594 319.871094 161.882812 320.347656 161.0625 320.789062 C 160.238281 321.226562 159.398438 321.625 158.535156 321.984375 C 157.675781 322.339844 156.796875 322.652344 155.90625 322.925781 C 155.011719 323.195312 154.109375 323.421875 153.195312 323.601562 C 152.28125 323.785156 151.359375 323.921875 150.429688 324.011719 C 149.503906 324.105469 148.574219 324.148438 147.640625 324.148438 C 146.707031 324.148438 145.777344 324.105469 144.851562 324.011719 C 143.921875 323.921875 143 323.785156 142.085938 323.601562 C 141.171875 323.421875 140.269531 323.195312 139.375 322.925781 C 138.484375 322.652344 137.609375 322.339844 136.746094 321.984375 C 135.886719 321.625 135.042969 321.226562 134.21875 320.789062 C 133.398438 320.347656 132.597656 319.871094 131.824219 319.351562 C 131.050781 318.835938 130.300781 318.28125 129.582031 317.6875 C 128.859375 317.097656 128.167969 316.472656 127.511719 315.8125 C 126.851562 315.152344 126.226562 314.460938 125.632812 313.742188 C 125.042969 313.019531 124.488281 312.273438 123.96875 311.496094 C 123.453125 310.722656 122.972656 309.921875 122.535156 309.101562 C 122.09375 308.277344 121.695312 307.4375 121.339844 306.574219 C 120.980469 305.714844 120.667969 304.835938 120.398438 303.945312 C 120.125 303.054688 119.902344 302.148438 119.71875 301.234375 C 119.535156 300.320312 119.398438 299.398438 119.308594 298.472656 C 119.21875 297.542969 119.171875 296.613281 119.171875 295.679688 C 119.171875 294.75 119.21875 293.820312 119.308594 292.890625 C 119.398438 291.960938 119.535156 291.042969 119.71875 290.125 C 119.902344 289.210938 120.125 288.308594 120.398438 287.417969 C 120.667969 286.523438 120.980469 285.648438 121.339844 284.785156 C 121.695312 283.925781 122.09375 283.082031 122.535156 282.261719 C 122.972656 281.4375 123.453125 280.640625 123.96875 279.863281 C 124.488281 279.089844 125.042969 278.339844 125.632812 277.621094 C 126.226562 276.898438 126.851562 276.210938 127.511719 275.550781 C 128.167969 274.890625 128.859375 274.265625 129.582031 273.675781 C 130.300781 273.082031 131.050781 272.527344 131.824219 272.007812 C 132.597656 271.492188 133.398438 271.011719 134.21875 270.574219 C 135.042969 270.132812 135.886719 269.734375 136.746094 269.378906 C 137.609375 269.023438 138.484375 268.707031 139.375 268.4375 C 140.269531 268.167969 141.171875 267.941406 142.085938 267.757812 C 143 267.578125 143.921875 267.441406 144.851562 267.347656 C 145.777344 267.257812 146.707031 267.210938 147.640625 267.210938 C 148.574219 267.210938 149.503906 267.257812 150.429688 267.347656 C 151.359375 267.441406 152.28125 267.578125 153.195312 267.757812 C 154.109375 267.941406 155.011719 268.167969 155.90625 268.4375 C 156.796875 268.707031 157.675781 269.023438 158.535156 269.378906 C 159.398438 269.734375 160.238281 270.132812 161.0625 270.574219 C 161.882812 271.011719 162.683594 271.492188 163.457031 272.007812 C 164.234375 272.527344 164.980469 273.082031 165.703125 273.675781 C 166.421875 274.265625 167.113281 274.890625 167.773438 275.550781 C 168.429688 276.210938 169.054688 276.898438 169.648438 277.621094 C 170.238281 278.339844 170.792969 279.089844 171.3125 279.863281 C 171.832031 280.640625 172.308594 281.4375 172.75 282.261719 C 173.1875 283.082031 173.585938 283.925781 173.941406 284.785156 C 174.300781 285.648438 174.613281 286.523438 174.882812 287.417969 C 175.15625 288.308594 175.382812 289.210938 175.5625 290.125 C 175.746094 291.042969 175.882812 291.960938 175.972656 292.890625 C 176.066406 293.820312 176.109375 294.75 176.109375 295.679688 Z M 176.109375 295.679688 " fill-opacity="1" fill-rule="nonzero"/></g><g clip-path="url(#25e043ca66)"><path fill="#053262" d="M 284.292969 255.824219 L 152.867188 255.824219 C 133.929688 255.824219 117.496094 242.351562 113.785156 223.789062 L 86.035156 85.007812 L 56.539062 85.007812 C 53.394531 85.007812 50.84375 82.457031 50.84375 79.316406 C 50.84375 76.171875 53.394531 73.621094 56.539062 73.621094 L 90.703125 73.621094 C 93.414062 73.621094 95.746094 75.535156 96.28125 78.199219 L 124.957031 221.546875 C 127.609375 234.8125 139.339844 244.4375 152.867188 244.4375 L 284.292969 244.4375 C 287.4375 244.4375 289.988281 246.988281 289.988281 250.128906 C 289.988281 253.273438 287.4375 255.824219 284.292969 255.824219 Z M 284.292969 255.824219 " fill-opacity="1" fill-rule="nonzero"/></g><path fill="#053262" d="M 301.054688 179.289062 C 299.359375 178.285156 297.273438 178.21875 295.53125 179.140625 C 284.886719 184.683594 273.441406 187.496094 261.519531 187.496094 C 220.703125 187.496094 187.542969 156.636719 187.601562 114.890625 C 187.601562 114.808594 187.65625 113.71875 187.667969 113.648438 C 187.714844 112.078125 187.109375 110.5625 186.007812 109.457031 C 184.890625 108.34375 183.351562 107.75 181.804688 107.785156 L 101.917969 107.785156 C 100.257812 107.828125 98.695312 108.617188 97.660156 109.914062 C 96.613281 111.199219 96.179688 112.886719 96.5 114.527344 L 113.582031 205.628906 C 114.082031 208.324219 116.425781 210.273438 119.171875 210.273438 L 275.570312 210.273438 C 289.894531 210.273438 302.046875 199.558594 303.8125 185.335938 C 303.847656 185.050781 303.847656 184.332031 303.847656 184.046875 C 303.800781 182.089844 302.742188 180.289062 301.054688 179.289062 Z M 301.054688 179.289062 " fill-opacity="1" fill-rule="nonzero"/><g clip-path="url(#df57b7c139)"><path fill="#053262" d="M 261.519531 50.84375 C 226.980469 50.84375 198.886719 78.9375 198.886719 113.476562 C 198.886719 148.015625 226.980469 176.109375 261.519531 176.109375 C 296.058594 176.109375 324.148438 148.015625 324.148438 113.476562 C 324.148438 78.9375 296.058594 50.84375 261.519531 50.84375 Z M 299.710938 94.734375 L 254.160156 140.285156 C 253.046875 141.390625 251.585938 141.945312 250.128906 141.945312 C 248.671875 141.945312 247.214844 141.390625 246.097656 140.285156 L 223.324219 117.507812 C 221.101562 115.289062 221.101562 111.679688 223.324219 109.457031 C 225.542969 107.238281 229.152344 107.238281 231.375 109.457031 L 250.128906 128.203125 L 291.648438 86.683594 C 293.871094 84.460938 297.480469 84.460938 299.699219 86.683594 C 301.921875 88.902344 301.933594 92.5 299.710938 94.734375 Z M 299.710938 94.734375 " fill-opacity="1" fill-rule="nonzero"/></g><g clip-path="url(#b68b9498dd)"><g clip-path="url(#c7e5eff1a2)"><g transform="matrix(1, 0, 0, 1, 109, 146)"><g clip-path="url(#d35a81af42)"><g clip-path="url(#4f50815c18)"><g clip-path="url(#ab0d7f2e04)"><path fill="#ffffff" d="M 0.0351562 0.5 L 39.433594 0.5 L 39.433594 39.898438 L 0.0351562 39.898438 Z M 0.0351562 0.5 " fill-opacity="1" fill-rule="nonzero"/></g></g></g></g></g></g><g clip-path="url(#49dab30d3e)"><g clip-path="url(#5b39196d12)"><g transform="matrix(1, 0, 0, 1, 197, 46)"><g clip-path="url(#887566589d)"><g clip-path="url(#7f4420a3ab)"><g clip-path="url(#e6540c5793)"><path fill="#00bf63" d="M 0.0703125 0.847656 L 131.152344 0.847656 L 131.152344 131.929688 L 0.0703125 131.929688 Z M 0.0703125 0.847656 " fill-opacity="1" fill-rule="nonzero"/></g></g></g></g></g></g><g clip-path="url(#98c721ad63)"><path fill="#ffffff" d="M 301.460938 84.273438 C 300.75 84.296875 300.070312 84.449219 299.421875 84.734375 C 298.773438 85.019531 298.199219 85.417969 297.707031 85.925781 L 241.5 142.136719 L 223.515625 124.152344 C 223.265625 123.890625 222.988281 123.65625 222.691406 123.449219 C 222.390625 123.242188 222.078125 123.066406 221.742188 122.921875 C 221.410156 122.777344 221.066406 122.667969 220.710938 122.59375 C 220.355469 122.515625 219.996094 122.476562 219.632812 122.472656 C 219.269531 122.46875 218.910156 122.503906 218.550781 122.570312 C 218.195312 122.640625 217.847656 122.742188 217.511719 122.878906 C 217.175781 123.015625 216.855469 123.1875 216.554688 123.386719 C 216.25 123.585938 215.972656 123.816406 215.714844 124.074219 C 215.457031 124.332031 215.230469 124.609375 215.027344 124.914062 C 214.828125 125.214844 214.65625 125.535156 214.519531 125.871094 C 214.382812 126.207031 214.28125 126.554688 214.210938 126.910156 C 214.144531 127.265625 214.113281 127.628906 214.117188 127.992188 C 214.117188 128.355469 214.160156 128.714844 214.234375 129.070312 C 214.308594 129.425781 214.417969 129.769531 214.5625 130.101562 C 214.707031 130.433594 214.882812 130.75 215.089844 131.050781 C 215.296875 131.347656 215.53125 131.625 215.792969 131.875 L 237.636719 153.71875 C 237.890625 153.972656 238.167969 154.199219 238.464844 154.398438 C 238.761719 154.597656 239.078125 154.765625 239.410156 154.902344 C 239.738281 155.039062 240.082031 155.140625 240.433594 155.210938 C 240.785156 155.28125 241.140625 155.316406 241.5 155.316406 C 241.855469 155.316406 242.210938 155.28125 242.5625 155.210938 C 242.914062 155.140625 243.257812 155.039062 243.585938 154.902344 C 243.917969 154.765625 244.234375 154.597656 244.53125 154.398438 C 244.828125 154.199219 245.105469 153.972656 245.359375 153.71875 L 305.429688 93.648438 C 305.824219 93.265625 306.152344 92.832031 306.414062 92.347656 C 306.679688 91.867188 306.863281 91.355469 306.972656 90.816406 C 307.082031 90.277344 307.109375 89.734375 307.054688 89.1875 C 307 88.636719 306.867188 88.109375 306.652344 87.605469 C 306.4375 87.097656 306.152344 86.632812 305.796875 86.214844 C 305.441406 85.792969 305.035156 85.433594 304.570312 85.136719 C 304.109375 84.839844 303.609375 84.617188 303.082031 84.46875 C 302.550781 84.324219 302.011719 84.257812 301.460938 84.273438 Z M 301.460938 84.273438 " fill-opacity="1" fill-rule="nonzero"/></g></svg>