<svg xmlns="http://www.w3.org/2000/svg" xmlns:xlink="http://www.w3.org/1999/xlink" width="500" zoomAndPan="magnify" viewBox="0 0 375 149.999998" height="200" preserveAspectRatio="xMidYMid meet" version="1.0"><defs><g/><clipPath id="94aad2625a"><path d="M 83 101 L 110 101 L 110 126.710938 L 83 126.710938 Z M 83 101 " clip-rule="nonzero"/></clipPath><clipPath id="121a721847"><path d="M 31 101 L 58 101 L 58 126.710938 L 31 126.710938 Z M 31 101 " clip-rule="nonzero"/></clipPath><clipPath id="d599be719a"><path d="M 0.4375 13 L 110 13 L 110 97 L 0.4375 97 Z M 0.4375 13 " clip-rule="nonzero"/></clipPath><clipPath id="89010ab25e"><path d="M 67 2.992188 L 124.15625 2.992188 L 124.15625 60 L 67 60 Z M 67 2.992188 " clip-rule="nonzero"/></clipPath><clipPath id="8429b7d389"><path d="M 65.09375 0.722656 L 126.992188 0.722656 L 126.992188 62.621094 L 65.09375 62.621094 Z M 65.09375 0.722656 " clip-rule="nonzero"/></clipPath><clipPath id="b8ce7c8685"><path d="M 96.042969 0.722656 C 78.953125 0.722656 65.09375 14.578125 65.09375 31.671875 C 65.09375 48.761719 78.953125 62.621094 96.042969 62.621094 C 113.136719 62.621094 126.992188 48.761719 126.992188 31.671875 C 126.992188 14.578125 113.136719 0.722656 96.042969 0.722656 Z M 96.042969 0.722656 " clip-rule="nonzero"/></clipPath><clipPath id="f52bdeb6b7"><path d="M 0.09375 0.722656 L 61.992188 0.722656 L 61.992188 62.621094 L 0.09375 62.621094 Z M 0.09375 0.722656 " clip-rule="nonzero"/></clipPath><clipPath id="39b27de572"><path d="M 31.042969 0.722656 C 13.953125 0.722656 0.09375 14.578125 0.09375 31.671875 C 0.09375 48.761719 13.953125 62.621094 31.042969 62.621094 C 48.136719 62.621094 61.992188 48.761719 61.992188 31.671875 C 61.992188 14.578125 48.136719 0.722656 31.042969 0.722656 Z M 31.042969 0.722656 " clip-rule="nonzero"/></clipPath><clipPath id="d6170a28f3"><rect x="0" width="62" y="0" height="63"/></clipPath><clipPath id="e99d7d198f"><path d="M 67.367188 2.992188 L 124.722656 2.992188 L 124.722656 60.347656 L 67.367188 60.347656 Z M 67.367188 2.992188 " clip-rule="nonzero"/></clipPath><clipPath id="270ff6a63a"><path d="M 96.042969 2.992188 C 80.207031 2.992188 67.367188 15.832031 67.367188 31.671875 C 67.367188 47.507812 80.207031 60.347656 96.042969 60.347656 C 111.882812 60.347656 124.722656 47.507812 124.722656 31.671875 C 124.722656 15.832031 111.882812 2.992188 96.042969 2.992188 Z M 96.042969 2.992188 " clip-rule="nonzero"/></clipPath><clipPath id="13f6e8c710"><path d="M 0.367188 0.992188 L 57.722656 0.992188 L 57.722656 58.347656 L 0.367188 58.347656 Z M 0.367188 0.992188 " clip-rule="nonzero"/></clipPath><clipPath id="d471b8c779"><path d="M 29.042969 0.992188 C 13.207031 0.992188 0.367188 13.832031 0.367188 29.671875 C 0.367188 45.507812 13.207031 58.347656 29.042969 58.347656 C 44.882812 58.347656 57.722656 45.507812 57.722656 29.671875 C 57.722656 13.832031 44.882812 0.992188 29.042969 0.992188 Z M 29.042969 0.992188 " clip-rule="nonzero"/></clipPath><clipPath id="74a99ae9bc"><rect x="0" width="58" y="0" height="59"/></clipPath><clipPath id="b8444dd0dc"><path d="M 79.152344 18.769531 L 113 18.769531 L 113 44.691406 L 79.152344 44.691406 Z M 79.152344 18.769531 " clip-rule="nonzero"/></clipPath><clipPath id="4d5c0f1a1b"><rect x="0" width="372" y="0" height="128"/></clipPath></defs><g transform="matrix(1, 0, 0, 1, 2, 11)"><g clip-path="url(#4d5c0f1a1b)"><g clip-path="url(#94aad2625a)"><path fill="#053262" d="M 109.171875 114.316406 C 109.171875 115.167969 109.089844 116.007812 108.925781 116.84375 C 108.757812 117.675781 108.511719 118.484375 108.1875 119.273438 C 107.863281 120.058594 107.464844 120.804688 106.992188 121.507812 C 106.519531 122.214844 105.980469 122.871094 105.382812 123.472656 C 104.78125 124.070312 104.125 124.609375 103.417969 125.082031 C 102.714844 125.554688 101.96875 125.953125 101.183594 126.277344 C 100.394531 126.601562 99.585938 126.847656 98.753906 127.015625 C 97.917969 127.179688 97.078125 127.261719 96.226562 127.261719 C 95.378906 127.261719 94.535156 127.179688 93.703125 127.015625 C 92.867188 126.847656 92.058594 126.601562 91.273438 126.277344 C 90.488281 125.953125 89.742188 125.554688 89.035156 125.082031 C 88.328125 124.609375 87.675781 124.070312 87.074219 123.472656 C 86.472656 122.871094 85.9375 122.214844 85.464844 121.507812 C 84.992188 120.804688 84.59375 120.058594 84.269531 119.273438 C 83.941406 118.484375 83.699219 117.675781 83.53125 116.84375 C 83.367188 116.007812 83.28125 115.167969 83.28125 114.316406 C 83.28125 113.46875 83.367188 112.625 83.53125 111.792969 C 83.699219 110.957031 83.941406 110.148438 84.269531 109.363281 C 84.59375 108.578125 84.992188 107.832031 85.464844 107.125 C 85.9375 106.417969 86.472656 105.765625 87.074219 105.164062 C 87.675781 104.5625 88.328125 104.027344 89.035156 103.554688 C 89.742188 103.082031 90.488281 102.683594 91.273438 102.359375 C 92.058594 102.03125 92.867188 101.789062 93.703125 101.621094 C 94.535156 101.457031 95.378906 101.371094 96.226562 101.371094 C 97.078125 101.371094 97.917969 101.457031 98.753906 101.621094 C 99.585938 101.789062 100.394531 102.03125 101.183594 102.359375 C 101.96875 102.683594 102.714844 103.082031 103.417969 103.554688 C 104.125 104.027344 104.78125 104.5625 105.382812 105.164062 C 105.980469 105.765625 106.519531 106.417969 106.992188 107.125 C 107.464844 107.832031 107.863281 108.578125 108.1875 109.363281 C 108.511719 110.148438 108.757812 110.957031 108.925781 111.792969 C 109.089844 112.625 109.171875 113.46875 109.171875 114.316406 Z M 109.171875 114.316406 " fill-opacity="1" fill-rule="nonzero"/></g><g clip-path="url(#121a721847)"><path fill="#053262" d="M 57.394531 114.316406 C 57.394531 115.167969 57.308594 116.007812 57.144531 116.84375 C 56.980469 117.675781 56.734375 118.484375 56.40625 119.273438 C 56.082031 120.058594 55.683594 120.804688 55.210938 121.507812 C 54.738281 122.214844 54.203125 122.871094 53.601562 123.472656 C 53 124.070312 52.347656 124.609375 51.640625 125.082031 C 50.933594 125.554688 50.1875 125.953125 49.402344 126.277344 C 48.617188 126.601562 47.808594 126.847656 46.972656 127.015625 C 46.140625 127.179688 45.296875 127.261719 44.449219 127.261719 C 43.597656 127.261719 42.757812 127.179688 41.921875 127.015625 C 41.089844 126.847656 40.28125 126.601562 39.496094 126.277344 C 38.710938 125.953125 37.964844 125.554688 37.257812 125.082031 C 36.550781 124.609375 35.894531 124.070312 35.296875 123.472656 C 34.695312 122.871094 34.15625 122.214844 33.683594 121.507812 C 33.214844 120.804688 32.8125 120.058594 32.488281 119.273438 C 32.164062 118.484375 31.917969 117.675781 31.753906 116.84375 C 31.585938 116.007812 31.503906 115.167969 31.503906 114.316406 C 31.503906 113.46875 31.585938 112.625 31.753906 111.792969 C 31.917969 110.957031 32.164062 110.148438 32.488281 109.363281 C 32.8125 108.578125 33.214844 107.832031 33.683594 107.125 C 34.15625 106.417969 34.695312 105.765625 35.296875 105.164062 C 35.894531 104.5625 36.550781 104.027344 37.257812 103.554688 C 37.964844 103.082031 38.710938 102.683594 39.496094 102.359375 C 40.28125 102.03125 41.089844 101.789062 41.921875 101.621094 C 42.757812 101.457031 43.597656 101.371094 44.449219 101.371094 C 45.296875 101.371094 46.140625 101.457031 46.972656 101.621094 C 47.808594 101.789062 48.617188 102.03125 49.402344 102.359375 C 50.1875 102.683594 50.933594 103.082031 51.640625 103.554688 C 52.347656 104.027344 53 104.5625 53.601562 105.164062 C 54.203125 105.765625 54.738281 106.417969 55.210938 107.125 C 55.683594 107.832031 56.082031 108.578125 56.40625 109.363281 C 56.734375 110.148438 56.980469 110.957031 57.144531 111.792969 C 57.308594 112.625 57.394531 113.46875 57.394531 114.316406 Z M 57.394531 114.316406 " fill-opacity="1" fill-rule="nonzero"/></g><g clip-path="url(#d599be719a)"><path fill="#053262" d="M 106.582031 96.195312 L 46.824219 96.195312 C 38.214844 96.195312 30.742188 90.070312 29.054688 81.628906 L 16.4375 18.527344 L 3.023438 18.527344 C 1.597656 18.527344 0.4375 17.367188 0.4375 15.9375 C 0.4375 14.507812 1.597656 13.347656 3.023438 13.347656 L 18.558594 13.347656 C 19.792969 13.347656 20.851562 14.21875 21.097656 15.429688 L 34.132812 80.609375 C 35.339844 86.640625 40.671875 91.015625 46.824219 91.015625 L 106.582031 91.015625 C 108.011719 91.015625 109.171875 92.175781 109.171875 93.605469 C 109.171875 95.035156 108.011719 96.195312 106.582031 96.195312 Z M 106.582031 96.195312 " fill-opacity="1" fill-rule="nonzero"/></g><path fill="#053262" d="M 114.207031 61.394531 C 113.433594 60.9375 112.488281 60.90625 111.695312 61.328125 C 106.851562 63.847656 101.648438 65.128906 96.226562 65.128906 C 77.671875 65.128906 62.59375 51.09375 62.617188 32.113281 C 62.617188 32.078125 62.644531 31.578125 62.648438 31.546875 C 62.667969 30.832031 62.394531 30.144531 61.894531 29.644531 C 61.386719 29.136719 60.6875 28.867188 59.980469 28.882812 L 23.660156 28.882812 C 22.902344 28.902344 22.195312 29.257812 21.722656 29.851562 C 21.246094 30.433594 21.050781 31.203125 21.195312 31.945312 L 28.960938 73.371094 C 29.1875 74.597656 30.253906 75.484375 31.503906 75.484375 L 102.617188 75.484375 C 109.132812 75.484375 114.65625 70.609375 115.457031 64.144531 C 115.472656 64.015625 115.472656 63.6875 115.472656 63.558594 C 115.453125 62.667969 114.972656 61.847656 114.207031 61.394531 Z M 114.207031 61.394531 " fill-opacity="1" fill-rule="nonzero"/><g clip-path="url(#89010ab25e)"><path fill="#053262" d="M 96.226562 2.992188 C 80.523438 2.992188 67.75 15.765625 67.75 31.46875 C 67.75 47.175781 80.523438 59.949219 96.226562 59.949219 C 111.933594 59.949219 124.707031 47.175781 124.707031 31.46875 C 124.707031 15.765625 111.933594 2.992188 96.226562 2.992188 Z M 113.59375 22.949219 L 92.882812 43.660156 C 92.375 44.160156 91.710938 44.414062 91.050781 44.414062 C 90.386719 44.414062 89.722656 44.160156 89.21875 43.660156 L 78.859375 33.304688 C 77.851562 32.292969 77.851562 30.652344 78.859375 29.644531 C 79.871094 28.632812 81.511719 28.632812 82.523438 29.644531 L 91.050781 38.164062 L 109.929688 19.285156 C 110.9375 18.277344 112.578125 18.277344 113.589844 19.285156 C 114.597656 20.296875 114.605469 21.933594 113.59375 22.949219 Z M 113.59375 22.949219 " fill-opacity="1" fill-rule="nonzero"/></g><g clip-path="url(#8429b7d389)"><g clip-path="url(#b8ce7c8685)"><g transform="matrix(1, 0, 0, 1, 65, -0.000000000000008882)"><g clip-path="url(#d6170a28f3)"><g clip-path="url(#f52bdeb6b7)"><g clip-path="url(#39b27de572)"><path fill="#ffffff" d="M 0.09375 0.722656 L 61.992188 0.722656 L 61.992188 62.621094 L 0.09375 62.621094 Z M 0.09375 0.722656 " fill-opacity="1" fill-rule="nonzero"/></g></g></g></g></g></g><g clip-path="url(#e99d7d198f)"><g clip-path="url(#270ff6a63a)"><g transform="matrix(1, 0, 0, 1, 67, 2)"><g clip-path="url(#74a99ae9bc)"><g clip-path="url(#13f6e8c710)"><g clip-path="url(#d471b8c779)"><path fill="#00bf63" d="M 0.367188 0.992188 L 57.722656 0.992188 L 57.722656 58.347656 L 0.367188 58.347656 Z M 0.367188 0.992188 " fill-opacity="1" fill-rule="nonzero"/></g></g></g></g></g></g><g clip-path="url(#b8444dd0dc)"><path fill="#ffffff" d="M 110.738281 18.78125 C 110.207031 18.796875 109.757812 18.996094 109.386719 19.375 L 89.167969 39.59375 L 82.703125 33.125 C 82.519531 32.933594 82.304688 32.785156 82.0625 32.683594 C 81.820312 32.578125 81.570312 32.523438 81.304688 32.519531 C 81.039062 32.519531 80.785156 32.566406 80.542969 32.667969 C 80.296875 32.765625 80.082031 32.910156 79.894531 33.097656 C 79.710938 33.28125 79.566406 33.5 79.464844 33.742188 C 79.367188 33.988281 79.316406 34.242188 79.320312 34.503906 C 79.324219 34.769531 79.375 35.023438 79.480469 35.265625 C 79.585938 35.507812 79.734375 35.71875 79.925781 35.902344 L 87.78125 43.757812 C 87.964844 43.941406 88.175781 44.085938 88.417969 44.183594 C 88.660156 44.285156 88.910156 44.332031 89.167969 44.332031 C 89.429688 44.332031 89.679688 44.285156 89.921875 44.183594 C 90.160156 44.085938 90.375 43.941406 90.558594 43.757812 L 112.164062 22.152344 C 112.453125 21.871094 112.640625 21.53125 112.71875 21.132812 C 112.800781 20.738281 112.761719 20.351562 112.605469 19.980469 C 112.445312 19.605469 112.195312 19.308594 111.855469 19.089844 C 111.515625 18.871094 111.140625 18.769531 110.738281 18.78125 Z M 110.738281 18.78125 " fill-opacity="1" fill-rule="nonzero"/></g><g fill="#053262" fill-opacity="1"><g transform="translate(135.583789, 53.35267)"><g><path d="M 16.703125 -25.90625 L 16.703125 -20.734375 L 7.78125 -20.734375 L 7.78125 -15.578125 L 16.328125 -15.578125 L 16.328125 -10.390625 L 7.78125 -10.390625 L 7.78125 -5.1875 L 16.703125 -5.1875 L 16.703125 0 L 1.890625 0 L 1.890625 -25.90625 Z M 16.703125 -25.90625 "/></g></g></g><g fill="#053262" fill-opacity="1"><g transform="translate(155.277297, 53.35267)"><g><path d="M 1.890625 -11.5 L 12 -11.5 L 12 -6.6875 L 1.890625 -6.6875 Z M 1.890625 -11.5 "/></g></g></g><g fill="#053262" fill-opacity="1"><g transform="translate(170.636464, 53.35267)"><g><path d="M 15.671875 -5.34375 C 16.566406 -5.34375 17.4375 -5.476562 18.28125 -5.75 C 19.132812 -6.019531 19.757812 -6.28125 20.15625 -6.53125 L 20.765625 -6.9375 L 23.265625 -1.921875 C 23.179688 -1.859375 23.066406 -1.769531 22.921875 -1.65625 C 22.773438 -1.550781 22.4375 -1.359375 21.90625 -1.078125 C 21.375 -0.796875 20.800781 -0.550781 20.1875 -0.34375 C 19.582031 -0.132812 18.785156 0.0507812 17.796875 0.21875 C 16.816406 0.382812 15.804688 0.46875 14.765625 0.46875 C 12.359375 0.46875 10.070312 -0.117188 7.90625 -1.296875 C 5.75 -2.484375 4.007812 -4.113281 2.6875 -6.1875 C 1.375 -8.257812 0.71875 -10.5 0.71875 -12.90625 C 0.71875 -14.726562 1.101562 -16.476562 1.875 -18.15625 C 2.65625 -19.832031 3.6875 -21.265625 4.96875 -22.453125 C 6.257812 -23.648438 7.765625 -24.601562 9.484375 -25.3125 C 11.203125 -26.019531 12.960938 -26.375 14.765625 -26.375 C 16.429688 -26.375 17.972656 -26.175781 19.390625 -25.78125 C 20.804688 -25.382812 21.804688 -24.988281 22.390625 -24.59375 L 23.265625 -24 L 20.765625 -18.96875 C 20.617188 -19.09375 20.394531 -19.242188 20.09375 -19.421875 C 19.800781 -19.597656 19.210938 -19.832031 18.328125 -20.125 C 17.453125 -20.425781 16.566406 -20.578125 15.671875 -20.578125 C 14.242188 -20.578125 12.960938 -20.34375 11.828125 -19.875 C 10.703125 -19.414062 9.8125 -18.804688 9.15625 -18.046875 C 8.5 -17.296875 7.992188 -16.488281 7.640625 -15.625 C 7.296875 -14.757812 7.125 -13.875 7.125 -12.96875 C 7.125 -11 7.863281 -9.234375 9.34375 -7.671875 C 10.820312 -6.117188 12.929688 -5.34375 15.671875 -5.34375 Z M 15.671875 -5.34375 "/></g></g></g><g fill="#053262" fill-opacity="1"><g transform="translate(195.763584, 53.35267)"><g><path d="M 0.71875 -12.96875 C 0.71875 -16.71875 1.992188 -19.890625 4.546875 -22.484375 C 7.109375 -25.078125 10.1875 -26.375 13.78125 -26.375 C 17.40625 -26.375 20.484375 -25.082031 23.015625 -22.5 C 25.554688 -19.914062 26.828125 -16.738281 26.828125 -12.96875 C 26.828125 -9.175781 25.578125 -5.988281 23.078125 -3.40625 C 20.585938 -0.820312 17.488281 0.46875 13.78125 0.46875 C 10 0.46875 6.875 -0.8125 4.40625 -3.375 C 1.945312 -5.9375 0.71875 -9.132812 0.71875 -12.96875 Z M 7.09375 -12.96875 C 7.09375 -11.601562 7.300781 -10.359375 7.71875 -9.234375 C 8.144531 -8.117188 8.878906 -7.175781 9.921875 -6.40625 C 10.972656 -5.632812 12.257812 -5.25 13.78125 -5.25 C 15.976562 -5.25 17.640625 -6 18.765625 -7.5 C 19.890625 -9.007812 20.453125 -10.832031 20.453125 -12.96875 C 20.453125 -15.082031 19.878906 -16.898438 18.734375 -18.421875 C 17.585938 -19.941406 15.9375 -20.703125 13.78125 -20.703125 C 11.644531 -20.703125 9.992188 -19.941406 8.828125 -18.421875 C 7.671875 -16.898438 7.09375 -15.082031 7.09375 -12.96875 Z M 7.09375 -12.96875 "/></g></g></g><g fill="#053262" fill-opacity="1"><g transform="translate(224.785313, 53.35267)"><g><path d="M 23.296875 0 L 22.078125 -15.359375 L 21.921875 -15.359375 L 16.609375 -0.15625 L 13.09375 -0.15625 L 7.78125 -15.359375 L 7.625 -15.359375 L 6.40625 0 L 0.5 0 L 2.828125 -25.90625 L 9.109375 -25.90625 L 14.859375 -10.953125 L 20.609375 -25.90625 L 26.890625 -25.90625 L 29.203125 0 Z M 23.296875 0 "/></g></g></g><g fill="#053262" fill-opacity="1"><g transform="translate(255.974212, 53.35267)"><g/></g></g><g fill="#053262" fill-opacity="1"><g transform="translate(266.025405, 53.35267)"><g><path d="M 1.890625 -25.90625 L 9.390625 -25.90625 C 12.992188 -25.90625 16.070312 -24.675781 18.625 -22.21875 C 21.175781 -19.757812 22.453125 -16.675781 22.453125 -12.96875 C 22.453125 -9.238281 21.179688 -6.144531 18.640625 -3.6875 C 16.097656 -1.226562 13.015625 0 9.390625 0 L 1.890625 0 Z M 7.78125 -5.28125 L 8.703125 -5.28125 C 10.859375 -5.28125 12.617188 -6.003906 13.984375 -7.453125 C 15.359375 -8.910156 16.054688 -10.738281 16.078125 -12.9375 C 16.078125 -15.132812 15.390625 -16.96875 14.015625 -18.4375 C 12.648438 -19.90625 10.878906 -20.640625 8.703125 -20.640625 L 7.78125 -20.640625 Z M 7.78125 -5.28125 "/></g></g></g><g fill="#053262" fill-opacity="1"><g transform="translate(290.681403, 53.35267)"><g><path d="M 16.703125 -25.90625 L 16.703125 -20.734375 L 7.78125 -20.734375 L 7.78125 -15.578125 L 16.328125 -15.578125 L 16.328125 -10.390625 L 7.78125 -10.390625 L 7.78125 -5.1875 L 16.703125 -5.1875 L 16.703125 0 L 1.890625 0 L 1.890625 -25.90625 Z M 16.703125 -25.90625 "/></g></g></g><g fill="#053262" fill-opacity="1"><g transform="translate(310.37491, 53.35267)"><g><path d="M 23.296875 0 L 22.078125 -15.359375 L 21.921875 -15.359375 L 16.609375 -0.15625 L 13.09375 -0.15625 L 7.78125 -15.359375 L 7.625 -15.359375 L 6.40625 0 L 0.5 0 L 2.828125 -25.90625 L 9.109375 -25.90625 L 14.859375 -10.953125 L 20.609375 -25.90625 L 26.890625 -25.90625 L 29.203125 0 Z M 23.296875 0 "/></g></g></g><g fill="#053262" fill-opacity="1"><g transform="translate(341.563809, 53.35267)"><g><path d="M 0.71875 -12.96875 C 0.71875 -16.71875 1.992188 -19.890625 4.546875 -22.484375 C 7.109375 -25.078125 10.1875 -26.375 13.78125 -26.375 C 17.40625 -26.375 20.484375 -25.082031 23.015625 -22.5 C 25.554688 -19.914062 26.828125 -16.738281 26.828125 -12.96875 C 26.828125 -9.175781 25.578125 -5.988281 23.078125 -3.40625 C 20.585938 -0.820312 17.488281 0.46875 13.78125 0.46875 C 10 0.46875 6.875 -0.8125 4.40625 -3.375 C 1.945312 -5.9375 0.71875 -9.132812 0.71875 -12.96875 Z M 7.09375 -12.96875 C 7.09375 -11.601562 7.300781 -10.359375 7.71875 -9.234375 C 8.144531 -8.117188 8.878906 -7.175781 9.921875 -6.40625 C 10.972656 -5.632812 12.257812 -5.25 13.78125 -5.25 C 15.976562 -5.25 17.640625 -6 18.765625 -7.5 C 19.890625 -9.007812 20.453125 -10.832031 20.453125 -12.96875 C 20.453125 -15.082031 19.878906 -16.898438 18.734375 -18.421875 C 17.585938 -19.941406 15.9375 -20.703125 13.78125 -20.703125 C 11.644531 -20.703125 9.992188 -19.941406 8.828125 -18.421875 C 7.671875 -16.898438 7.09375 -15.082031 7.09375 -12.96875 Z M 7.09375 -12.96875 "/></g></g></g><g fill="#053262" fill-opacity="1"><g transform="translate(135.583789, 91.057354)"><g><path d="M 11.4375 -26.375 C 12.832031 -26.375 14.203125 -26.171875 15.546875 -25.765625 C 16.890625 -25.359375 17.882812 -24.957031 18.53125 -24.5625 L 19.46875 -23.9375 L 17.078125 -19.21875 C 16.890625 -19.34375 16.628906 -19.503906 16.296875 -19.703125 C 15.960938 -19.898438 15.332031 -20.164062 14.40625 -20.5 C 13.488281 -20.84375 12.632812 -21.015625 11.84375 -21.015625 C 10.851562 -21.015625 10.09375 -20.800781 9.5625 -20.375 C 9.03125 -19.957031 8.765625 -19.394531 8.765625 -18.6875 C 8.765625 -18.332031 8.890625 -18 9.140625 -17.6875 C 9.390625 -17.382812 9.816406 -17.0625 10.421875 -16.71875 C 11.035156 -16.375 11.570312 -16.097656 12.03125 -15.890625 C 12.488281 -15.679688 13.203125 -15.367188 14.171875 -14.953125 C 15.835938 -14.234375 17.257812 -13.257812 18.4375 -12.03125 C 19.625 -10.8125 20.21875 -9.429688 20.21875 -7.890625 C 20.21875 -6.398438 19.953125 -5.097656 19.421875 -3.984375 C 18.890625 -2.878906 18.15625 -2.007812 17.21875 -1.375 C 16.289062 -0.75 15.257812 -0.285156 14.125 0.015625 C 13 0.316406 11.773438 0.46875 10.453125 0.46875 C 9.328125 0.46875 8.21875 0.351562 7.125 0.125 C 6.039062 -0.101562 5.128906 -0.390625 4.390625 -0.734375 C 3.660156 -1.078125 3 -1.414062 2.40625 -1.75 C 1.820312 -2.09375 1.394531 -2.378906 1.125 -2.609375 L 0.71875 -2.953125 L 3.671875 -7.921875 C 3.921875 -7.703125 4.265625 -7.429688 4.703125 -7.109375 C 5.148438 -6.785156 5.929688 -6.351562 7.046875 -5.8125 C 8.171875 -5.269531 9.160156 -5 10.015625 -5 C 12.503906 -5 13.75 -5.84375 13.75 -7.53125 C 13.75 -7.894531 13.660156 -8.226562 13.484375 -8.53125 C 13.304688 -8.832031 12.992188 -9.132812 12.546875 -9.4375 C 12.097656 -9.738281 11.695312 -9.976562 11.34375 -10.15625 C 11 -10.332031 10.4375 -10.601562 9.65625 -10.96875 C 8.875 -11.34375 8.296875 -11.625 7.921875 -11.8125 C 6.347656 -12.582031 5.128906 -13.546875 4.265625 -14.703125 C 3.410156 -15.867188 2.984375 -17.125 2.984375 -18.46875 C 2.984375 -20.789062 3.84375 -22.6875 5.5625 -24.15625 C 7.28125 -25.632812 9.238281 -26.375 11.4375 -26.375 Z M 11.4375 -26.375 "/></g></g></g><g fill="#053262" fill-opacity="1"><g transform="translate(158.166845, 91.057354)"><g><path d="M 7.78125 -10.390625 L 7.78125 0 L 1.890625 0 L 1.890625 -25.90625 L 7.78125 -25.90625 L 7.78125 -15.578125 L 16.140625 -15.578125 L 16.140625 -25.90625 L 22.046875 -25.90625 L 22.046875 0 L 16.140625 0 L 16.140625 -10.390625 Z M 7.78125 -10.390625 "/></g></g></g><g fill="#053262" fill-opacity="1"><g transform="translate(183.576631, 91.057354)"><g><path d="M 0.71875 -12.96875 C 0.71875 -16.71875 1.992188 -19.890625 4.546875 -22.484375 C 7.109375 -25.078125 10.1875 -26.375 13.78125 -26.375 C 17.40625 -26.375 20.484375 -25.082031 23.015625 -22.5 C 25.554688 -19.914062 26.828125 -16.738281 26.828125 -12.96875 C 26.828125 -9.175781 25.578125 -5.988281 23.078125 -3.40625 C 20.585938 -0.820312 17.488281 0.46875 13.78125 0.46875 C 10 0.46875 6.875 -0.8125 4.40625 -3.375 C 1.945312 -5.9375 0.71875 -9.132812 0.71875 -12.96875 Z M 7.09375 -12.96875 C 7.09375 -11.601562 7.300781 -10.359375 7.71875 -9.234375 C 8.144531 -8.117188 8.878906 -7.175781 9.921875 -6.40625 C 10.972656 -5.632812 12.257812 -5.25 13.78125 -5.25 C 15.976562 -5.25 17.640625 -6 18.765625 -7.5 C 19.890625 -9.007812 20.453125 -10.832031 20.453125 -12.96875 C 20.453125 -15.082031 19.878906 -16.898438 18.734375 -18.421875 C 17.585938 -19.941406 15.9375 -20.703125 13.78125 -20.703125 C 11.644531 -20.703125 9.992188 -19.941406 8.828125 -18.421875 C 7.671875 -16.898438 7.09375 -15.082031 7.09375 -12.96875 Z M 7.09375 -12.96875 "/></g></g></g><g fill="#053262" fill-opacity="1"><g transform="translate(212.59836, 91.057354)"><g><path d="M 1.890625 -25.90625 L 11.34375 -25.90625 C 13.976562 -25.90625 16.109375 -25.222656 17.734375 -23.859375 C 19.367188 -22.503906 20.1875 -20.523438 20.1875 -17.921875 C 20.1875 -15.328125 19.359375 -13.289062 17.703125 -11.8125 C 16.054688 -10.34375 13.9375 -9.609375 11.34375 -9.609375 L 7.78125 -9.609375 L 7.78125 0 L 1.890625 0 Z M 7.78125 -14.328125 L 9.453125 -14.328125 C 10.773438 -14.328125 11.859375 -14.59375 12.703125 -15.125 C 13.546875 -15.65625 13.96875 -16.53125 13.96875 -17.75 C 13.96875 -18.976562 13.546875 -19.859375 12.703125 -20.390625 C 11.859375 -20.929688 10.773438 -21.203125 9.453125 -21.203125 L 7.78125 -21.203125 Z M 7.78125 -14.328125 "/></g></g></g><g fill="#053262" fill-opacity="1"><g transform="translate(234.992959, 91.057354)"><g><path d="M 1.890625 -25.90625 L 11.34375 -25.90625 C 13.976562 -25.90625 16.109375 -25.222656 17.734375 -23.859375 C 19.367188 -22.503906 20.1875 -20.523438 20.1875 -17.921875 C 20.1875 -15.328125 19.359375 -13.289062 17.703125 -11.8125 C 16.054688 -10.34375 13.9375 -9.609375 11.34375 -9.609375 L 7.78125 -9.609375 L 7.78125 0 L 1.890625 0 Z M 7.78125 -14.328125 L 9.453125 -14.328125 C 10.773438 -14.328125 11.859375 -14.59375 12.703125 -15.125 C 13.546875 -15.65625 13.96875 -16.53125 13.96875 -17.75 C 13.96875 -18.976562 13.546875 -19.859375 12.703125 -20.390625 C 11.859375 -20.929688 10.773438 -21.203125 9.453125 -21.203125 L 7.78125 -21.203125 Z M 7.78125 -14.328125 "/></g></g></g><g fill="#053262" fill-opacity="1"><g transform="translate(257.387559, 91.057354)"><g><path d="M 7.78125 -25.90625 L 7.78125 0 L 1.890625 0 L 1.890625 -25.90625 Z M 7.78125 -25.90625 "/></g></g></g><g fill="#053262" fill-opacity="1"><g transform="translate(268.538041, 91.057354)"><g><path d="M 7.78125 -16.078125 L 7.78125 0 L 1.890625 0 L 1.890625 -25.90625 L 7.78125 -25.90625 L 18.09375 -9.828125 L 18.15625 -9.828125 L 18.15625 -25.90625 L 24.0625 -25.90625 L 24.0625 0 L 18.15625 0 L 7.84375 -16.078125 Z M 7.78125 -16.078125 "/></g></g></g><g fill="#053262" fill-opacity="1"><g transform="translate(295.957949, 91.057354)"><g><path d="M 25.3125 -14.515625 L 25.3125 -8.890625 C 24.644531 -5.804688 23.179688 -3.472656 20.921875 -1.890625 C 18.660156 -0.316406 16.132812 0.46875 13.34375 0.46875 C 9.851562 0.46875 6.875 -0.835938 4.40625 -3.453125 C 1.945312 -6.066406 0.71875 -9.226562 0.71875 -12.9375 C 0.71875 -16.707031 1.921875 -19.890625 4.328125 -22.484375 C 6.742188 -25.078125 9.75 -26.375 13.34375 -26.375 C 17.550781 -26.375 20.878906 -24.898438 23.328125 -21.953125 L 19.46875 -17.71875 C 18.09375 -19.9375 16.164062 -21.046875 13.6875 -21.046875 C 11.863281 -21.046875 10.304688 -20.253906 9.015625 -18.671875 C 7.734375 -17.085938 7.09375 -15.175781 7.09375 -12.9375 C 7.09375 -10.738281 7.734375 -8.859375 9.015625 -7.296875 C 10.304688 -5.742188 11.863281 -4.96875 13.6875 -4.96875 C 15.195312 -4.96875 16.507812 -5.421875 17.625 -6.328125 C 18.75 -7.234375 19.3125 -8.441406 19.3125 -9.953125 L 13.34375 -9.953125 L 13.34375 -14.515625 Z M 25.3125 -14.515625 "/></g></g></g><path stroke-linecap="round" transform="matrix(1.178271, 0, 0, 1.178271, 135.583789, 103.113506)" fill="none" stroke-linejoin="miter" d="M 0.499109 0.50041 L 159.501235 0.50041 " stroke="#053262" stroke-width="1" stroke-opacity="1" stroke-miterlimit="4"/></g></g></svg>